<svg xmlns="http://www.w3.org/2000/svg" version="1.1" xmlns:xlink="http://www.w3.org/1999/xlink" xmlns:svgjs="http://svgjs.dev/svgjs" viewBox="0 0 1422 800"><defs><linearGradient x1="50%" y1="0%" x2="50%" y2="100%" id="ssscribble-grad"><stop stop-color="hsl(335, 77%, 60%)" stop-opacity="1" offset="0%"></stop><stop stop-color="hsl(335, 77%, 80%)" stop-opacity="1" offset="100%"></stop></linearGradient></defs><g fill="none" stroke-width="1.5" stroke="url(#ssscribble-grad)" stroke-linecap="round" stroke-dasharray="26"><path d="M2591.42 249.66C2620.36 279.56 2597.82 307.69 2530.87 334.22 2438.7 360.93 2346.62 386.39 2279.39 411.03 2254.65 436.42 2277.28 461.76 2339.21 487.76 2423.54 515.51 2505.37 545.08 2562.23 577.39 2579.52 612.65 2551 651.85 2483.4 695.75 2392.38 743.23 2298.85 795.8 2223.51 853.4 2182.04 913.27 2181.34 976.52 2218.21 1041.61 2282.52 1104.47 2355.76 1164.95 2419.23 1220.11 2458.33 1266.28 2461.59 1302.12 2427.21 1325.08 2360.84 1334.82 2274.17 1330.57 2182.7 1313.15 2101.35 1287.77 2043.31 1256.31 2015.84 1224.24 2021.01 1200.12 2053.67 1187.67 2104.14 1192.81 2162.13 1219.73 2213.32 1268.79 2246.98 1338.45 2256.82 1421.97 2238.36 1512.34 2193.34 1599.22 2126.59 1670.66 2046.3 1718.65 1962.03 1736.47 1882.08 1723.94 1815.26 1684.72 1766.88 1628.41 1736.75 1549.27 1789.58 1557.74 1841.87 1673.8 1874.1 1776.03 1896.35 1874.2 1905.22 1947.86 1899.8 1981.64 1878.35 1969.83 1842.24 1917.52 1793.19 1843.52 1734.31 1769.97 1669.24 1722.14 1600.05 1719.91 1531.25 1768.4 1465.71 1859.41 1404.32 1969.81 1350.05 2070.67 1303.64 2133.46 1264.95 2141.21 1234.35 2093.68 1210.88 2008.64 1194.31 1919.46 1182.91 1858.68 1175.14 1852.3 1171.46 1907.67 1169.07 2009.27 1166.72 2124.59 1165.77 2214.14 1163.23 2247.33 1158.45 2212.85 1153.43 2126.72 1145.49 2022.99 1134.52 1944.79 1122.73 1927.11 1107.93 1979.23 1090.29 2083.6 1071.93 2199.83 1051.06 2281.76 1027.97 2295.66 1004.48 2236.89 979.12 2129.92 952.12 2021.1 925 1959.61 896.46 1972.38 866.56 2055.36 836.66 2172.62 805.75 2270.85 773.81 2307.24 741.76 2266.86 708.45 2166.6 673.7 2049.23 638.54 1963.24 601.6 1942.82 562.61 1993.48 522.89 2092.95 480.81 2197.15 436.2 2262.35 390.78 2262.06 342.83 2194.21 292.49 2084.21 241.92 1971.81 189.64 1897.03 136.34 1883.66 84.44 1933.23 33.15 2022.58 -16.23 2115.47 -61.53 2177.28 -102.59 2182.33 -137.84 2127.26 -166.19 2028.09 -186.76 1915.15 -198.56 1821.73 -202.65 1773.13 -198.19 1779.79 -185.9 1833.58 -169.45 1914.61 -149.03 1992.48 -127.47 2040.74 -110.03 2043.53 -98.02 1996.26 -95.06 1909.96 -105.04 1804.01 -128.88 1703.38 -167.93 1629.27 -221.27 1594.91 -287.16 1603.35 -362.18 1646.22 -440.14 1710.1 -516.27 1774.02 -584.07 1820.07 -637.05 1836.76 -671.17 1816.48 -683.23 1761.83 -674.04 1680.5 -645.48 1585.94 -602.81 1492.61 -555.82 1412.07 -511.85 1355.06 -480.4 1325.7 -470.69 1324.35 -486.53 1345.82 -529.63 1381.83 -596.55 1425.56 -679.95 1465.4 -769.07 1493.55 -850.68 1506.22 -913.4 1498.42 -947.5 1470.42 -948.97 1423.99 -918.75 1362.9 -864.08 1292.44 -799.27 1215.92 -738.13 1139.96 -696.08 1068.81 -686.04 1003.91 -712.44 949.17 -773.45 905.2 -858.84 871.67 -952.78 848.26 -1036.51 833.09 -1092.82 825.83 -1110.29 823.33 -1085.69 823.36 -1027.22 826.75 -949.27 829.53 -872.49 830.34 -819.14 831.22 -803.53 828.58 -832.35 822.1 -900.75 814.37 -992.75 802.63 -1085.85 787.19 -1156.54 770.52 -1186.53 750.66 -1167.7 728.09 -1106.38 704.84 -1018.77 679.47 -929.6 652.36 -865.65 625.07 -844.62 596.4 -873.56 566.5 -945.16 536.6 -1037.45 505.82 -1123.72 474.06 -1180.6 442.1 -1190.99 408.8 -1152.34 373.82 -1075.41 338.15 -980.41 300.19 -892.18 259.51 -833 217.6 -816.65 172.44 -845 123.79 -909.69 73.88 -991.1 20.62 -1066.83 -35.6 -1117.8 -91.77 -1128.96 -149.37 -1096.89 -207.02 -1028.29 -261.29 -937.77 -312.47 -844.78 -358.28 -745.39 -410.71 -772.63 -449.58 -868.42 -433.39 -932.45 -412.74 -975.85 -386.59 -988.28 -359.16 -966.26 -337.81 -911.7 -325.1 -833.64 -326.29 -743.95 -345.92 -657.03 -384.99 -585.4 -443.75 -538.01 -517.98 -519.62 -603.12 -529.11 -691.32 -562.5 -771.8 -609.89 -836.92 -660.65 -878.34 -706.21 -891.77 -735.84 -876.68 -743.76 -837.16 -727.98 -784.85 -688.34 -730.42 -629.02 -688.28 -555.27 -672.82 -474.91 -690.8 -395.52 -744.76 -322.77 -828.11 -262.99 -928.33 -219.3 -1027.52 -188.56 -1127.07 -218.77 -1072.28 -257.28 -963.25 -283.68 -908.09 -304.31 -890.87 -316.44 -922.6 -319.68 -999.8 -311.39 -1105.49 -291.81 -1213.2 -261.87 -1293.66 -222.41 -1325.83 -175.43 -1301.56 -121.85 -1232.48 -64.46 -1142.68 -5.35 -1065.43 55.42 -1032.27 114.85 -1058.01 171.74 -1139.25 226.88 -1251.58 278.09 -1359.1 325.18 -1425.54 369.24 -1429.05 409.25 -1369.84 445.66 -1271.68 479.26 -1175.93 510.07 -1120.99 538.77 -1132.24 565.53 -1208.97 591.11 -1323.35 616.12 -1431.58 640.07 -1491 664.2 -1477.94 688.97 -1397.86 713.28 -1286.4 738.69 -1190.62 765.46 -1153.23 792.12 -1192.62 820.35 -1292.36 850.25 -1409.62 880.15 -1492.6 911.37 -1503.85 943.77 -1439.37 976.06 -1327.55 1009.32 -1216.12 1043.24 -1151.43 1076.72 -1159.42 1110.4 -1233.98 1143.81 -1341.45 1176.14 -1437.06 1207.46 -1479.02 1237.09 -1449.79 1264.78 -1360.05 1289.86 -1243.41 1311.61 -1143.04 1330.56 -1094.32 1345.38 -1111.94 1355.57 -1184.61 1363.95 -1324.77 1355.81 -1335.87 1343.37 -1184.04 1332.97 -1041.75 1335.47 -1065.96 1359.8 -1187.37 1389.32 -1251.7 1429.41 -1272.37 1480.28 -1241.2 1540.03 -1164.43 1607.53 -1060.83 1680.02 -955.69 1752.48 -872.24 1822.04 -828.22 1884.03 -828.75 1933.64 -869.15 1968.11 -933.02 1984.75 -999.95 1983.84 -1052.26 1965.98 -1072.82 1934.25 -1055.06 1895.88 -1000.46 1855.65 -917.85 1821.09 -821.7 1800.96 -726.2 1799.57 -646.85 1821.08 -593.3 1866.28 -570.09 1932.23 -576.16 2013.1 -604.83 2099.16 -648.92 2180.85 -695.65 2247.49 -734.7 2290.25 -759.89 2304.07 -763.65 2287.82 -744.49 2247.31 -703.54 2190.45 -644.22 2129.7 -572.47 2080.58 -492.77 2053.85 -412.94 2058.49 -338.46 2097.6 -271.95 2166.52 -217.88 2254.87 -177.13 2346.9 -149.59 2426.23 -134.26 2477.64 -128.61 2491.94 -131.95 2467.16 -139.97 2409.95 -149.76 2336.39 -161.78 2264.03 -171.35 2212.31 -176.97 2197.11 -180.32 2223.85 -178.07 2289.06 -170.2 2379.04 -158.74 2473.36 -142.04 2549.58 -120.91 2589.48 -96.83 2583.29 -69.51 2532.88 -39.91 2453.41 -8.57 2365.77 23.9 2294.75 56.75 2262.01 90.36 2276.88 123.56 2336.75 155.91 2426.02 188.44 2519.82 219.75 2591.42 249.66Q2591.42 249.66 2591.42 249.66" opacity="0.31"></path><path d="M2508.91 355.85C2537.64 384.33 2519.57 415.45 2460.02 449.17 2374.58 482.93 2284.6 519.34 2212.18 558.36 2174.69 597.41 2179.83 639.02 2224.59 682.96 2297.71 726.62 2379.15 772.13 2448.41 818.9 2489.41 864.33 2490.75 909.77 2451.77 954.08 2380.63 995.04 2292.02 1032.85 2204.19 1065.99 2114.69 1103.58 2152.85 1130.74 2249.06 1118.69 2335.65 1093.87 2331.42 1037.52 2233.83 1026.2 2148.04 1034.83 2062.89 1057.92 1990.61 1097.34 1940.37 1152.15 1917.66 1220.78 1922.52 1299.44 1951.99 1380.7 1997.45 1459.28 2048.98 1527.47 2116.23 1591.67 2129.25 1568.39 2063.02 1497.89 1995.59 1449 1918.95 1411.33 1840.57 1395.84 1766.43 1410.64 1703.31 1456.95 1655.14 1531.49 1624.04 1623.46 1610.39 1719.61 1612.19 1803.61 1627.75 1860.15 1651.89 1880.07 1679.96 1860.48 1709.53 1809.46 1734.6 1740.15 1751.96 1672.15 1760.77 1627.56 1757.93 1620.34 1743.28 1657.88 1717.6 1735.24 1681.44 1836.8 1636.76 1939.37 1584.69 2017.52 1528 2052.64 1468.97 2036.3 1408.07 1976.55 1348.37 1892.31 1291.31 1811.76 1236.47 1764.47 1186.03 1767.8 1140.26 1825.58 1098.39 1923.25 1061.25 2032.91 1028.34 2121.2 999.12 2160.8 973.23 2139.93 949.87 2066.66 929.15 1969.49 909.85 1883.27 891.23 1841.57 874.14 1863.02 856.83 1942.03 838.77 2052.38 821.43 2154.75 802.77 2212.01 782.48 2202.56 762.45 2131.21 740.49 2024.94 716.44 1925.8 692.44 1874.84 666.24 1892.38 637.76 1972.82 609.28 2084.47 578.87 2181 546.62 2224.09 514.43 2197.59 480.51 2111.4 445.08 1999.15 409.9 1903.17 373.5 1858.62 336.22 1879.83 299.65 1957.42 262.78 2059.35 226.17 2146.26 191.08 2186.3 157.15 2162.82 125.16 2083.54 95.79 1974.48 69.47 1871.41 47.03 1806.47 28.27 1798.24 14.29 1845.33 5.62 1928 1.08 2049.55 20 2017.25 38.3 1869.86 53.86 1734.44 56.76 1730.38 32.13 1836.56 1.41 1905.81 -40.38 1945.78 -93.08 1944.39 -154.33 1900.07 -222.54 1820.84 -294.46 1723.18 -364.88 1625.3 -430.59 1546.25 -486.9 1498.46 -529.44 1487.47 -555.71 1510.43 -563.68 1557.36 -554.58 1616.69 -529.68 1671.52 -492.86 1708.86 -451.8 1721 -411.6 1702.42 -379.68 1655.16 -364.07 1584.48 -368.44 1500.02 -395.83 1412.43 -445.79 1330.2 -514.51 1262.93 -595.41 1215.55 -678.61 1190.17 -754.75 1186.03 -813.87 1199.09 -848.38 1226.03 -854.29 1258.92 -831.62 1291.39 -786.9 1320.37 -728.25 1339.04 -667.86 1344.76 -620.28 1337.38 -595.37 1315.47 -601.05 1280.72 -639.69 1234.57 -706.52 1179.98 -791.59 1120.14 -880.17 1055.93 -956.9 991.62 -1007.5 929.42 -1023.12 868.89 -1001.3 813.25 -947.43 763.02 -875.67 717.04 -801.89 676.68 -744.32 641.3 -718.91 609.98 -732.54 582.47 -784.53 557.74 -864.78 535.73 -955.91 515.11 -1037.37 494.96 -1090.48 476.22 -1102.63 456.91 -1070.77 436.43 -1003.98 416.49 -918.26 394.79 -835.68 371 -778.97 347.32 -762.35 321.31 -791.08 292.83 -858.58 264.36 -945.9 233.75 -1030.03 201.18 -1090.32 168.73 -1110.29 134.56 -1085.2 99.03 -1021.6 64.04 -934.57 28.29 -844.97 -7.58 -773.48 -42.05 -735.8 -75.61 -738.85 -107.31 -780.84 -136.28 -849.27 -162.01 -926.5 -183.41 -1015.63 -206.68 -974.94 -217.47 -856.42 -205.23 -767.24 -193.57 -691.03 -179.22 -640.65 -164.37 -623.65 -153.87 -640.2 -148.01 -683.82 -149.95 -744.83 -163.28 -808.02 -188.81 -859.7 -228.19 -890.05 -280.66 -890.87 -345.4 -861.05 -419.74 -804.25 -497.56 -728.25 -575.1 -643.8 -645.93 -561.46 -702.89 -492.1 -741.9 -443.12 -758.88 -418.75 -753.86 -419.19 -728.15 -440.74 -686.67 -478.77 -639.83 -524.04 -595.29 -568.07 -563.68 -604.9 -555.48 -626.55 -575.1 -629.3 -624.56 -612.26 -699.21 -575.45 -790.48 -522.16 -885.32 -456.09 -967.76 -383.09 -1025.32 -308.82 -1047.96 -237.32 -1033.81 -174 -987.43 -121.87 -921.23 -69.59 -830.96 -47.01 -854.54 -65.13 -985.65 -84.14 -1089.08 -103.45 -1176.2 -120.45 -1225.99 -135.05 -1227.49 -143.58 -1182.13 -145.09 -1104.73 -140.38 -1022.24 -127.83 -960.8 -108.02 -943.33 -81.86 -980.09 -49.7 -1063.53 -12.78 -1171.72 28.54 -1272.89 72.73 -1337.3 118.55 -1345.15 166.55 -1296.29 214.63 -1208.07 262.02 -1112.57 309.96 -1046.84 356.33 -1035.64 400.81 -1086.66 445.06 -1184.54 487.17 -1296.17 527.08 -1382.11 566.6 -1411.68 604.04 -1374.16 639.47 -1283.82 674.65 -1177.21 708.03 -1095.26 739.71 -1071.6 771.31 -1117.51 801.35 -1215.47 829.83 -1327.13 858.3 -1407.59 884.88 -1423.7 909.53 -1369.91 934.09 -1267.93 956.58 -1157.4 976.87 -1080.39 996.91 -1065.29 1014.53 -1115.53 1029.63 -1209.55 1050.38 -1346.23 1078.52 -1289.44 1086.73 -1129.45 1092.07 -1042.61 1096.2 -1006.88 1099.87 -1030.4 1105.7 -1102.62 1112.64 -1194.98 1121.85 -1274.14 1135.47 -1313.43 1153.28 -1297.06 1176.47 -1228.9 1206.01 -1127.48 1242.2 -1021.2 1285.58 -938.27 1335.17 -898.75 1391.14 -909.56 1452.51 -962.3 1516.27 -1039.47 1581.65 -1114.54 1646.03 -1164.34 1705.44 -1174.33 1758.2 -1138.49 1801.26 -1064.24 1832.19 -966.6 1849.63 -866.6 1852.56 -783.91 1842.78 -732.64 1821.03 -719.9 1790.27 -742.81 1756.75 -793.18 1723.67 -854.74 1696.66 -911.2 1682.44 -950.24 1683.85 -960.12 1704.13 -937.59 1744.21 -884.78 1802.29 -808.9 1874.63 -720.93 1954.17 -631.12 2034.03 -551.7 2105.68 -490.73 2177.42 -445.88 2164.62 -490.51 2092.59 -545.6 2014.11 -592.36 1972.58 -596.38 2042 -546.75 2119.08 -495.36 2206.57 -434.55 2290.75 -368.38 2357.54 -298.55 2396.14 -230.13 2400.01 -165.8 2370.5 -105.75 2314 -53.09 2243.33 -8.15 2176.29 29.77 2127.63 60.32 2110.35 84.68 2131.28 103.21 2187.69 117.61 2269.59 129.37 2360.39 137.77 2441.12 145.56 2494.09 153.84 2508.13 160.78 2480.14 169.45 2417 180.41 2335.74 191.09 2255.72 204.54 2197.75 220.95 2178.29 237.41 2202.52 256.87 2265.67 279.36 2352.65 301.88 2441.41 327.37 2508.91 355.85Q2508.91 355.85 2508.91 355.85" opacity="0.16"></path><path d="M2426.43 576.75C2454.79 603.81 2440.87 630.53 2388.5 656.8 2310.21 682.9 2223.68 708.2 2148.22 732.35 2100.27 755.86 2089.27 777.62 2116.11 797.1 2174.47 815.29 2249.44 830.51 2323.65 842.23 2381.59 852.18 2409.16 858.22 2400.28 860.18 2356.54 860.67 2285.63 857.57 2200.99 851.44 2117.72 845.75 2050.55 839.02 2010.15 832.81 2002.24 830.81 2025.53 832.66 2073.05 840.51 2135.28 856.94 2197.9 882.38 2248.28 918.21 2277.52 964.09 2278.27 1020 2249.66 1084.73 2195.26 1154.13 2122.33 1226.39 2040.98 1297.25 1961.23 1360.69 1893.42 1413.61 1844.8 1451.49 1819.76 1471.59 1818.9 1472.68 1839.12 1455.14 1876.28 1424.02 1921.8 1382.98 1967.52 1339.16 2020.59 1291.53 2015.59 1326.2 1952.25 1422.13 1890.64 1507.37 1820.76 1596.82 1748.23 1678.09 1677.26 1738.71 1613.4 1770.57 1560.06 1768.93 1519.11 1736.94 1491.98 1681.76 1478.06 1616.58 1476.84 1559.52 1485.45 1524.29 1500.9 1523.02 1521.99 1560.7 1544.05 1632.85 1564.28 1727.41 1582.22 1825.07 1594.07 1906.28 1598.65 1953.23 1596.5 1956.55 1585.97 1916.91 1567.52 1846 1542 1766.38 1509.85 1700.57 1472.37 1670.2 1429.99 1688.08 1384.43 1752.37 1337 1848.77 1287.36 1952.03 1237.67 2034.77 1188.81 2073.81 1139.72 2059.26 1092.47 1996.36 1047.4 1905.69 1003.09 1818.94 961.21 1764.56 921.74 1763.04 883.21 1817.93 846.88 1913.28 812.52 2019.46 778.88 2101.99 746.84 2133.69 716.16 2103.58 685.85 2023.3 656.56 1920.31 628.13 1831.64 599.79 1790.81 572.12 1812.57 545.07 1890.33 518.01 1996.34 491.9 2090.65 466.8 2139.31 441.8 2125.82 418.01 2054.46 395.63 1950.61 373.61 1849.82 353.34 1785.83 335.1 1778.46 317.56 1828.84 302.42 1917.14 289.93 2011.89 278.39 2081.72 269.69 2101.51 263.92 2064.42 258.91 1981.21 256.56 1876.45 256.56 1780.6 256.34 1720.05 257.46 1709.97 259.09 1749.35 258.5 1824.46 256.6 1909.32 252.09 1977.2 242.69 2008.25 228.54 1990.95 208.37 1928.87 181.14 1836.24 146.6 1735.2 104.33 1648.68 55.33 1594.49 -0.28 1582.3 -61.32 1610.19 -124.63 1668.73 -189.11 1739.21 -251.89 1802.27 -309.03 1842.74 -358.62 1848.11 -397.64 1815.97 -423.96 1750.98 -436.32 1664.41 -434.07 1571.21 -419.44 1485.3 -393.51 1420.28 -359.65 1383.6 -324.24 1377.89 -290.66 1399.6 -264.51 1440.54 -252.03 1492.35 -255.84 1541.9 -278.6 1579.21 -320.62 1598.33 -379.66 1593.35 -451.58 1564.22 -529.25 1513.3 -605.79 1445.92 -673.04 1369.21 -723.36 1288.86 -751.64 1213.16 -754.77 1147.57 -734.32 1095.07 -693.7 1058.76 -640.13 1038.38 -584.97 1033.33 -537.22 1040.41 -506.94 1055.85 -502.46 1078.11 -526.3 1101.45 -577.55 1122.45 -649.95 1140.79 -733.5 1151.98 -815.57 1154.94 -882.92 1150.58 -924.93 1137.27 -934.6 1115.9 -911.78 1087.48 -861.05 1052.86 -793.05 1013.66 -723.67 970.02 -666.86 924.16 -636 877.44 -640.01 828.88 -679.26 781.12 -747.64 734.92 -832.29 688.44 -916.46 644.25 -982.75 602.56 -1017.51 561.18 -1013.17 522.37 -970.57 486.12 -900.47 450.14 -817.98 416.53 -742.4 385.18 -692.74 353.92 -680.19 324.76 -708.55 297.71 -771.99 270.66 -854.26 246.03 -935.72 223.85 -998.37 201.77 -1026.68 182.31 -1014.44 165.59 -964.82 149.15 -888.34 135.64 -801.68 125.14 -695.72 111.29 -688.7 96.89 -780.65 93.96 -884.47 88.73 -939.34 64.56 -863.51 37.98 -784.03 11.34 -698.93 -22.8 -622.13 -65.32 -565.22 -115.17 -536.1 -172.66 -536.94 -236.68 -565.83 -303.37 -614.53 -371.78 -672.39 -438.46 -729.44 -498.32 -773.32 -549.18 -795.91 -587.21 -793.3 -609.93 -763.85 -616.02 -711.1 -605.22 -641 -581.33 -562.14 -546.6 -483.66 -506.5 -413.3 -470.02 -358.48 -442.12 -323.27 -429.91 -309.54 -439.49 -315.89 -472.44 -338.47 -528.68 -373.54 -603.1 -413.51 -688.96 -451.93 -776.22 -495.12 -880.78 -488.16 -917.93 -433.93 -847.89 -380.53 -786.64 -318.54 -731.09 -252.04 -696.19 -183.65 -694.14 -118.01 -728.66 -58.02 -797.31 -5.03 -888.53 38.57 -986.2 72.41 -1070.92 96.42 -1125 111.28 -1137.98 118.44 -1107.93 118.19 -1045.54 113.29 -967.59 105.67 -896.96 95.09 -856.9 84.92 -860.53 76.53 -911.41 68.93 -999.13 64.99 -1102.7 65.18 -1195.4 68.09 -1252.36 75.59 -1258.72 87.43 -1213.43 102.3 -1132.85 121.02 -1042.18 142.98 -971.86 167.36 -947.65 194.14 -979.13 222.66 -1059.4 252.73 -1164.59 283.75 -1262.09 315.15 -1320.39 347.37 -1320.96 379.4 -1263.62 410.86 -1168.19 442.64 -1069.69 473.51 -1002.37 503.22 -991.59 533.01 -1042.96 561.48 -1138.64 588.54 -1244.65 615.59 -1322.41 640.9 -1342.8 664.55 -1299.26 688.27 -1207.89 710.48 -1100.85 731.39 -1015.22 752.63 -979.75 772.91 -1004.79 792.58 -1079.4 813.06 -1177.65 833.52 -1263.8 854.47 -1308.25 876.97 -1296.29 900.76 -1230.23 926.46 -1130.6 954.58 -1027.04 985.46 -950.04 1019.68 -920.23 1056.92 -944 1097.99 -1010.3 1143.09 -1095.98 1190.92 -1174.79 1242.33 -1220.37 1296.81 -1218.42 1352.08 -1168.21 1408.55 -1081.47 1464.81 -979.83 1518.11 -886.91 1568.09 -824.18 1612.76 -803.37 1650.02 -826.19 1678.93 -882.23 1698.01 -953.7 1706.66 -1044.57 1664.14 -1014.92 1623.67 -895.58 1597.39 -800.32 1574.9 -714.1 1560.2 -650.17 1557.89 -616.58 1569.39 -615.59 1596.59 -642.48 1639.5 -690.01 1696.57 -744.85 1764.83 -794.63 1838.71 -830.6 1913.29 -843.29 1982.09 -829.71 2038.41 -790.62 2077.61 -729.94 2095.83 -654.97 2092.56 -572.45 2068.77 -491.92 2028.51 -420.56 1980.12 -362.79 1930.4 -322.89 1888.47 -301.3 1863.89 -297.49 1861.64 -308 1885.2 -328.34 1933.97 -356.11 2003.03 -384.6 2084.21 -409.58 2166.21 -429.88 2237.99 -440.73 2288.9 -440.92 2311.75 -431.07 2303.56 -410.21 2266.48 -379.75 2209.51 -340.72 2143.14 -295.1 2081.24 -245.1 2038.49 -190.87 2023.92 -135.57 2042.91 -80.8 2094.23 -25.59 2169.53 27.11 2255.63 76.7 2336.33 124.82 2396.28 169.35 2423.49 210.42 2413.34 249.72 2367.88 285.98 2297.18 319.67 2218.45 352.08 2148.62 382.64 2104.35 411.82 2097.47 440.36 2129.82 468.14 2195.18 495.47 2279.35 522.64 2362.99 549.7 2426.43 576.75Q2426.43 576.75 2426.43 576.75" opacity="0.51"></path><path d="M2343 337.72C2371.62 363.35 2362.3 386.39 2317.54 406.92 2247.09 427.5 2165.24 445.71 2088.52 461.73 2032 478.05 2006.04 492.54 2014.48 505.59 2055.21 519.52 2118.29 532.74 2190.24 545.93 2257.55 561.04 2305.55 577.3 2324.84 595.64 2311.96 617.34 2268.08 642.52 2200.7 672.13 2120.75 706.3 2041.18 745.81 1974.22 791.08 1929.45 840.6 1912.41 895.2 1923.47 954.04 1959.6 1013.95 2012.08 1074.96 2070.64 1134.73 2125.98 1189.4 2166.95 1237.88 2186.51 1277.3 2181.53 1305.31 2151.03 1320.67 2098.69 1322.21 2030.33 1311.7 1954.12 1289.54 1878.68 1258.45 1811.36 1224.73 1759.11 1191.26 1725.81 1163.73 1713.34 1149.12 1720.44 1150.34 1743.56 1170.94 1779.15 1211.81 1820.02 1271.31 1859.94 1345.53 1894.83 1426.58 1918.35 1507.34 1927.42 1578.56 1921.09 1631.2 1898.33 1659.69 1860.77 1660.45 1810.53 1635.73 1751.18 1590.07 1686.67 1532.66 1619.83 1477.42 1555.22 1435.06 1495.93 1416.88 1443.54 1430.57 1400.55 1476.66 1367.56 1550.47 1344.74 1640.2 1331.51 1731.51 1326.48 1807.9 1329.28 1855.04 1337.15 1864.77 1348.05 1835.91 1362.01 1777.73 1375.61 1704.14 1387.34 1634.5 1397.9 1589.41 1404.47 1581.56 1406.47 1616.79 1405.06 1689.68 1398.53 1784.97 1387.13 1880.91 1371.94 1954.24 1352.42 1987.45 1329.24 1972.34 1303.01 1915.05 1274.1 1831.65 1243.26 1746.87 1210.44 1687.87 1176.61 1672.6 1142.4 1708.33 1107.13 1787 1072.14 1887.2 1037.87 1980.34 1003.12 2039.14 969.48 2046.06 937.2 1998.78 904.76 1913.29 873.87 1815.86 844.66 1738.19 815.43 1706.98 787.96 1732.4 762.33 1807.31 736.7 1907.66 713.22 1999.25 691.83 2052.39 670.41 2050.86 651.02 1994.62 633.53 1901.86 607.94 1762.27 563.79 1744.28 543.85 1866.24 529.72 1951.73 515.64 2006.18 501.01 2013.24 484.41 1970.5 466.33 1888.64 446.06 1789.47 422.74 1698 396.25 1637 365.95 1619.56 331.86 1647.8 293.42 1710.65 250.42 1788.87 204 1861.83 153.57 1907.99 99.73 1914.87 44.72 1879.84 -11.57 1809.21 -67.61 1717.96 -120.6 1623.86 -169.94 1545.75 -213.55 1497.12 -249.35 1484.93 -276.3 1507.82 -292.98 1556.94 -299.49 1620.71 -295.32 1682.17 -281.06 1727.27 -259.88 1746.91 -232.68 1734.65 -202.51 1691.8 -174.68 1623.89 -151.25 1540.99 -136.17 1454.85 -133.78 1375.61 -145.41 1313.61 -172.67 1274.47 -215.33 1260.53 -271.65 1270.06 -338.49 1297.78 -410.37 1338.57 -482.36 1382.77 -548.22 1422.52 -619.86 1460.37 -637.03 1422.14 -584.07 1349.05 -535.32 1284.8 -484.87 1215.24 -441.32 1145.1 -413.78 1076.89 -407.13 1015.53 -425.01 963.24 -467.43 920.62 -530.28 889.03 -606.47 867.68 -685.89 856.15 -758.21 852.43 -813.11 854.37 -842.96 861.89 -843.66 871.4 -815.55 880.98 -765.24 891.61 -701.25 899.69 -635.76 904.34 -567.58 906.56 -612.67 885.6 -719.41 863.55 -801.25 845.59 -873.04 824.89 -921.28 802.11 -937.24 778.04 -917.58 752.7 -866.14 726.63 -794.49 699.98 -716.47 673.17 -648.58 646.57 -606.39 619.81 -598.37 593.55 -626.99 567.92 -686.95 542.29 -764.34 517.6 -842.5 493.73 -906.01 469.71 -940.61 446.23 -939.45 422.96 -903.24 399.11 -838.71 374.9 -758.64 349.81 -678.22 323.43 -612.32 295.37 -572.38 264.99 -565.01 232.54 -589.68 196.99 -639.97 157.82 -706.24 116.16 -773.97 70.61 -829.89 21.17 -864.21 -29.97 -869.1 -84.06 -843.32 -140.17 -790.66 -195.25 -718.85 -249.72 -638.81 -301.66 -561.74 -348.02 -498.55 -388.17 -456.98 -419.92 -441.47 -441.86 -451.84 -452.96 -483.91 -452.43 -532 -442.23 -586.04 -422.34 -636.61 -394.96 -676.62 -365.64 -698.06 -336.25 -697.34 -311.51 -674.04 -297.65 -629.67 -297 -569.02 -313.07 -497.66 -347.44 -423.06 -399.41 -352.17 -466.64 -290.39 -543.06 -242.91 -623.19 -212.19 -699.15 -199.31 -762.04 -202.9 -805.96 -219.97 -825.62 -248.05 -820.08 -281.33 -790.87 -314.99 -743.6 -358.12 -663.53 -379.16 -595.96 -349.61 -652.67 -314.23 -726.26 -269.06 -815.33 -216.66 -905.79 -158.55 -981.61 -98.13 -1030.26 -37.89 -1042.89 21.27 -1019.07 76.43 -964.82 126.35 -893.58 170.96 -825.19 208.96 -776.43 240.49 -762.24 265.8 -789.96 285.35 -855.95 300.07 -947.69 309.92 -1044.69 316.61 -1125.29 321.23 -1170.2 323.08 -1169.43 324.47 -1124.02 326.23 -1047.01 328.12 -928.04 340.75 -915.24 352.94 -1043.37 368.29 -1179.59 411.54 -1184.18 438.82 -1052.82 457.92 -965.12 478.82 -912.69 501.37 -913.71 524 -969.4 548.15 -1062.28 573.78 -1162.64 599.41 -1237.56 626.22 -1261.7 654.21 -1227.95 682.28 -1147.72 711.67 -1046.46 742.48 -955.89 773.55 -903.52 806.26 -904.12 840.75 -955.39 875.68 -1041.02 912.58 -1132.5 951.5 -1201.3 990.9 -1227.15 1032.3 -1200.83 1075.57 -1129.63 1118.93 -1032.64 1163.7 -935.88 1209.42 -864.13 1254.15 -834.55 1298.77 -852.17 1342.41 -908.83 1383.28 -988.12 1421.56 -1065.67 1456.12 -1119.78 1485.82 -1136.24 1510.14 -1108.56 1528.1 -1042.62 1539.86 -952.13 1544.55 -856.66 1542.02 -775.62 1534.19 -723.9 1520.5 -709.77 1502.15 -732.1 1482.74 -783.68 1462.49 -849.22 1443.88 -912.28 1430.98 -959.4 1424.64 -977.88 1427.37 -963.07 1441.6 -916.39 1467.7 -844.63 1506.2 -759.13 1555.95 -671.45 1615.45 -594.66 1681.96 -537.98 1750.78 -506.78 1818.45 -502.48 1880.13 -521.53 1930.78 -559.16 1967.17 -605.52 1986.25 -651.41 1987.49 -690.47 1971.13 -714.04 1939.61 -718.24 1898.98 -702.17 1853.79 -665.98 1810.93 -613.26 1778.79 -547.61 1762.03 -475.31 1765.42 -402.1 1791.39 -331.5 1838.59 -269.16 1903.4 -217.83 1978.78 -178.55 2056.66 -152.43 2127.62 -138.36 2198.67 -138.59 2177.74 -177.94 2097.78 -202 2009.49 -221.24 1947.56 -226.63 2006.58 -211.04 2076.96 -194.16 2158.04 -172.34 2236.52 -146.6 2299.01 -117.49 2334.75 -85.84 2337.27 -52.62 2307.22 -17.48 2250.04 18.06 2177.13 53.29 2104.57 89.4 2046.34 124.47 2015.2 158.07 2019.11 191.97 2057.55 224.05 2123.62 254.08 2204.35 284.17 2283.04 312.09 2343 337.72Q2343 337.72 2343 337.72" opacity="0.36"></path><path d="M2261.41 260.22C2288.73 284.43 2282.18 310.02 2243.47 337.02 2180.26 364.12 2103.98 392.83 2028.47 423.3 1967.03 454.12 1929.91 487.01 1922.61 522.13 1945.97 557.84 1994.2 596.01 2057.73 636.69 2125.89 677.88 2185.25 721.41 2225.37 766.99 2239.95 812.27 2225.34 858.7 2183.71 905.43 2121.12 950.04 2046.55 993.15 1970.64 1033.4 1903.43 1068.84 1853.69 1099.14 1826.85 1122.85 1825.36 1139.39 1847.13 1147.85 1886.98 1147.61 1938.88 1140.41 1993.03 1125.61 2040.89 1104.46 2076.27 1081.16 2092.48 1056.21 2086.95 1032.78 2059.96 1016 2013.6 1007.29 1952.75 1009.96 1882.93 1026.81 1811.22 1058.37 1744.1 1104.88 1686.61 1163.86 1643.4 1232.82 1616.65 1307.2 1607.26 1380.01 1613.74 1446.29 1633.16 1499.7 1663.07 1534.85 1697.84 1548.9 1732.83 1540.54 1765.34 1513.04 1790.08 1470.14 1804.39 1419.05 1807.45 1370.64 1797.41 1332.52 1774.78 1313.45 1740.62 1320.19 1696.63 1354.13 1645.31 1413.56 1588.31 1491.18 1528.98 1577.33 1469.88 1659.5 1412.1 1724.58 1358.52 1763.03 1310.47 1768.57 1268.19 1742.16 1232.9 1689.42 1204.5 1621.99 1175.05 1532.41 1150.78 1533.52 1150.17 1641.34 1153.26 1733.67 1156.72 1819.07 1159.67 1879.35 1163.3 1901.78 1165.22 1881.92 1164.98 1825.05 1164.18 1747.3 1160.73 1667.95 1154.59 1608.66 1147.42 1587.35 1137.59 1610.74 1125.28 1675.25 1112.01 1765.74 1096.57 1859.81 1079.23 1933.11 1061.24 1966.49 1041.72 1950.94 1020.91 1890.54 999.79 1803.44 977.69 1713.52 954.78 1647.11 931.79 1624.92 908.16 1653.43 883.95 1725.32 859.75 1819.98 835.25 1908.41 810.44 1964.92 785.54 1974.14 760.15 1932.87 734.12 1853.22 707.78 1757.33 680.5 1671.32 652.06 1617.73 622.98 1609.98 592.36 1648.14 559.98 1719.92 526.64 1805.92 491.23 1881.13 453.58 1925.25 414.92 1927.01 373.98 1884.51 330.87 1807.93 287.19 1714.63 241.81 1625.97 195.22 1560.97 149.32 1532.52 103.38 1544.45 58.35 1590.81 16.08 1659.8 -23.48 1732.56 -59.16 1791.34 -89.65 1823.18 -114.44 1818.93 -132.51 1778.79 -143.85 1709.45 -147.73 1623.36 -144.01 1535.58 -134.51 1459.87 -118.88 1408.25 -98.4 1386.7 -76.6 1396.36 -53.95 1431.81 -32.95 1483.59 -17.62 1542.01 -8.96 1593.67 -9.44 1628.69 -21.44 1641.31 -45.34 1627.28 -81.6 1588.07 -129.12 1527.76 -186.35 1453.74 -250.58 1374.63 -317.3 1297.72 -383.04 1231.52 -443.13 1181.29 -510.67 1144.1 -541.92 1181.36 -503.63 1231.79 -463.43 1267.39 -417.79 1296.93 -373.18 1316.79 -337.54 1325.84 -315.5 1321.23 -311.94 1303.25 -329.84 1272.86 -368.57 1231.63 -425.54 1182.22 -494.99 1126 -569.81 1066.68 -641.4 1006.93 -700.94 947.24 -741.45 891.02 -757.7 839.56 -748.6 792.4 -715.62 751.36 -664.13 716.28 -603.95 686.49 -544.1 662.01 -495.17 641.92 -467.2 626.04 -465.2 613.07 -491.31 601.97 -542.96 593.41 -612.77 585.35 -690.27 576.97 -791.37 565.59 -834.27 535.76 -762.04 515.77 -691.32 501.74 -618.65 485.25 -557.87 466.22 -521.59 447.19 -516.26 425.6 -543.58 401.39 -599.09 377.19 -671.14 350.66 -745.82 321.88 -810.07 293.11 -850.92 262.1 -861.06 228.98 -839.21 195.94 -788.76 160.92 -718.72 124.16 -641.07 87.81 -568.74 50.15 -513.29 11.68 -483.26 -25.58 -482.22 -62.76 -508.71 -99.02 -557.89 -132.73 -619.54 -164.15 -682.47 -192.18 -754.64 -225.5 -746.13 -256.76 -664.35 -252.27 -591.35 -242.76 -515.93 -227.97 -447.35 -209.15 -376.23 -180.78 -373.57 -144.1 -430.55 -151.23 -479.79 -171.8 -527.29 -205.13 -566.18 -251.48 -592.06 -308.64 -599.91 -374.84 -588.37 -446.45 -558.2 -517.37 -511.51 -583.71 -452.52 -639.86 -385.54 -680.55 -316.46 -702.89 -250.47 -704.71 -191.41 -687.7 -143.46 -653.98 -108.66 -608.8 -84.7 -539.89 -114.39 -486.88 -152.55 -535.75 -181.07 -599.35 -206.85 -678.77 -227.33 -764.12 -241.89 -842.82 -247.63 -904.35 -243.97 -939.22 -231.38 -942.89 -209.49 -915.61 -179.38 -863.33 -141.91 -798.98 -98.64 -735.41 -51.29 -687.66 -0.35 -669.1 51.81 -685.5 103.79 -737.02 155.73 -815.49 205.47 -906.99 252.31 -993.72 296.89 -1057.84 337.78 -1086.53 374.97 -1073.81 409.18 -1024.56 439.87 -950.6 467.48 -870.97 492.41 -808.03 514.93 -778.13 535.61 -791.41 554.37 -847.05 572.05 -932.7 589.19 -1028.05 605.17 -1109.17 621.25 -1155.58 637.81 -1154.94 653.78 -1108.45 670.68 -1028.41 688.75 -937.31 706.59 -862.44 725.86 -824.77 746.7 -836.39 767.49 -895.32 789.95 -984.96 814.16 -1079.63 838.36 -1151.53 864.02 -1178.84 891.04 -1154.24 918.01 -1085.42 946.24 -991.88 975.54 -899.99 1004.62 -834.79 1034.52 -813.26 1064.98 -839.53 1094.84 -905.73 1124.82 -991.56 1154.49 -1072.72 1183 -1127.9 1210.56 -1140.85 1236.62 -1108.02 1260.75 -1037.21 1282.61 -945.25 1301.59 -853.84 1324.28 -766.02 1345.97 -834.28 1344.14 -943.19 1339.25 -1006.43 1330.93 -1041.4 1319.86 -1039.63 1308.76 -1000.69 1296.92 -931.21 1285.72 -844.45 1278.12 -755.43 1274.01 -680.16 1275.09 -630.32 1283.55 -612.43 1299.6 -626.54 1324.31 -666.42 1357.96 -723.39 1400.36 -783.46 1450.93 -834.16 1507.41 -866.66 1568.52 -872.84 1631.68 -851 1692.91 -803.35 1749.95 -735.84 1799.36 -657.25 1837.89 -575.97 1863.61 -502.1 1874.75 -442.87 1871.69 -402.79 1854.7 -384.35 1825.83 -386.29 1790.02 -406.49 1750.33 -438.84 1711.94 -477.02 1672.07 -533.58 1691.71 -581.33 1759.76 -558.32 1823.85 -523.68 1895.68 -477.03 1968.35 -421.7 2033.97 -359.71 2086.05 -295.59 2118.68 -232.55 2128.77 -171.65 2115.47 -116.53 2081.03 -68.45 2032.15 -27.34 1975.46 5.62 1920.2 31.03 1864.55 55.35 1903.23 71.84 1996.41 71.32 2073 68.51 2147.26 66.46 2207.97 65.98 2245.99 65.22 2255.4 66.93 2234.71 71.39 2188.6 76.36 2124.5 84.24 2053.95 94.96 1968.76 113.22 1966.61 162.58 2055.52 192.67 2132.63 213.48 2205.9 236.02 2261.41 260.22Q2261.41 260.22 2261.41 260.22" opacity="0.17"></path><path d="M2178.93 545.48C2205.53 568.26 2202.14 592.22 2169.78 617.23 2114.23 642.14 2044.39 667.9 1971.57 694.25 1907.2 720.18 1860.93 746.26 1839.19 772.05 1844.96 796.86 1875.9 820.72 1926.1 843.02 1988.06 863.56 2050.69 881.71 2104.04 896.84 2140.76 909.43 2154.13 918.27 2142.12 922.9 2106.33 924.75 2050.94 922.29 1983.16 915.61 1911.06 907.18 1843.45 895.65 1787.89 881.97 1741.7 863.41 1781.22 844 1847.49 853.6 1897.2 871.85 1941.63 899.75 1974.95 937.94 1993.7 985.28 1994.21 1041.19 1976.1 1103.75 1940.76 1168.79 1890.91 1234.13 1830.92 1295.7 1765.09 1348.55 1698.98 1389.95 1637.39 1416.5 1583.83 1426.66 1541.87 1419.81 1513.13 1396.96 1498.42 1362.8 1496.96 1320.65 1506.89 1276.54 1526.88 1238.92 1552.96 1212.65 1581.77 1203.68 1611.7 1216.36 1638.29 1251.17 1659.09 1306.68 1673.43 1377.37 1678.66 1456.4 1674.28 1534.59 1660.74 1601.52 1637.86 1649.29 1606.8 1671.3 1568.42 1665.53 1524.44 1633.45 1476.6 1581.06 1425.51 1519.93 1373.57 1460.73 1322.21 1415.97 1271.47 1396.98 1223.42 1408.75 1178.74 1452.18 1137.03 1521.51 1099.49 1606.02 1066.07 1691.32 1036.31 1761.77 1010.43 1804.83 987.93 1812.26 968.63 1783.93 951.92 1725.92 937.17 1651.34 918.98 1551.57 887.92 1547.13 872.63 1655.6 862.89 1745.51 852.06 1824.26 839.89 1873.49 827.98 1881.97 814.47 1847.47 799.24 1778.31 784.08 1692.94 767.09 1612.09 748.2 1556.96 729.33 1543.09 708.52 1574.1 685.74 1642.83 662.95 1731.78 638.47 1816.62 612.35 1875.43 586.25 1894.04 558.53 1867.15 529.32 1801.96 500.18 1714.67 469.63 1626.48 437.84 1558.19 406.32 1525.3 373.81 1534.15 340.58 1580.74 308.02 1653.6 275.21 1733.43 242.59 1800.77 211.33 1840.55 180.97 1842.19 152.12 1805.13 125.53 1736.77 101.35 1650.92 80.21 1564.66 55.23 1472.91 31.68 1496.27 34.2 1587.82 45.45 1679.16 85.33 1708.09 107.67 1629.29 119.22 1551.43 127.49 1468.64 130.76 1392.57 126.71 1332.52 115.08 1295.85 94.74 1285 65.23 1299.45 26.75 1333.77 -20.18 1380.28 -73.57 1431.99 -132.1 1478.51 -193.28 1512.42 -253.36 1529.44 -310 1525.3 -359.86 1500.15 -399.64 1455.97 -427.33 1396.98 -441.03 1328.89 -440.7 1256.53 -426.4 1186.79 -399.74 1124.66 -365.05 1073.19 -325.08 1035.71 -284.58 1012.83 -237.28 1006.69 -230.32 1058.35 -282.83 1097.33 -338.2 1122.56 -403.83 1142.54 -473.85 1155.56 -541.11 1161.86 -599.23 1159.31 -641.93 1148.14 -664.88 1129.19 -665.72 1102.74 -644.63 1070.16 -605.77 1031.97 -553.93 990.01 -496.63 945.76 -443.65 898.91 -402.11 851.88 -379.17 805.66 -380.02 759.16 -405.26 714.65 -452.83 672.53 -517.03 631.28 -589.5 592.72 -660.25 556.8 -719.25 521.97 -757.93 489.55 -770.38 459.26 -755.32 429.78 -714.65 402.02 -654.79 375.67 -586.48 349.74 -520.04 324.84 -466.77 300.78 -436.69 276.83 -434.46 253.49 -461.06 230.71 -512.69 207.92 -579.59 185.97 -650.29 164.93 -713.89 143.99 -758.92 124.19 -778.18 105.74 -769.18 87.71 -732.8 71.43 -674.92 57.21 -604.41 43.8 -531.72 32.88 -467.39 24.75 -408.44 15.69 -446.86 14.06 -525.67 20.59 -585.27 25.48 -637.93 31.62 -675.82 38.03 -694.07 41.85 -688.9 43.84 -660.74 42.55 -612.77 35.65 -550.31 23.12 -480.49 3.6 -410.48 -23.69 -347.81 -59.08 -298.35 -102.79 -266.23 -153.21 -253.41 -210.05 -259.27 -271.56 -282.23 -333.88 -317.38 -395.51 -359.32 -453.04 -403.7 -502.27 -443.59 -541.12 -474.17 -566.7 -492.75 -577.71 -495.85 -573.49 -482.85 -554.62 -454.58 -525.1 -412.64 -487.29 -360.19 -446.18 -300.19 -409.35 -237.04 -380.92 -174.66 -366.6 -115.78 -371.3 -64.04 -396.3 -21.47 -441.72 10.8 -504.03 32.05 -578.23 42.8 -656.83 43.35 -730.24 35.79 -790.7 22.21 -830.5 3.29 -845 -17.47 -832.88 -37.97 -796.56 -57.97 -744.21 -74.24 -684.32 -85.61 -628.51 -92.48 -589.52 -92.94 -575.16 -86.92 -590.98 -75.17 -637.01 -57.24 -707.42 -33.88 -791.81 -5.62 -875.82 26.75 -945.61 62.26 -988.56 100.87 -997.42 141.14 -970.98 182.19 -915.14 224.61 -843.69 266.68 -771.68 307.88 -716.18 349.22 -691.96 389.07 -705.45 427.21 -756.07 464.91 -834.26 500.73 -923.92 534.68 -1005.58 568.06 -1060.97 599.68 -1077.59 629.65 -1051.39 659.19 -989.78 687.31 -907.2 714.15 -824.42 740.75 -763.73 766.28 -740.23 790.83 -761.1 815.32 -822.18 838.95 -908.16 861.73 -997.12 884.51 -1065.86 906.17 -1095.73 926.68 -1079.6 947.13 -1022.2 966.3 -937.95 984.07 -848.07 1001.61 -774.39 1017.54 -734.28 1031.7 -736.06 1045.41 -778.6 1057.14 -849.59 1066.73 -930.72 1079.12 -1025.49 1091.98 -988.53 1092.93 -869.97 1093.06 -782.53 1091.89 -710.68 1089.91 -667.53 1089.29 -660.14 1088.99 -687.43 1089.86 -741.17 1093.83 -809.78 1100.44 -876.66 1110.66 -927.45 1125.76 -952.36 1145.79 -944.69 1171.44 -905.38 1202.83 -840.32 1240.15 -759.92 1283.31 -676.73 1330.96 -602.29 1382.95 -547.31 1438.06 -517.81 1493.67 -516.09 1548.96 -539.31 1601.75 -580.9 1649.22 -633.74 1690.03 -686.65 1722.08 -730.44 1743.92 -759.05 1754.61 -766.2 1753.59 -750.48 1742.27 -713.11 1721.1 -657.7 1692.08 -590.22 1659.56 -516.26 1625.56 -443.54 1593.97 -378.12 1569.92 -324 1555.65 -285.21 1554.28 -262.76 1568.19 -256.71 1597.42 -264.86 1641.34 -283.82 1697.26 -311.51 1761.69 -342.33 1829.79 -372.26 1895.45 -399.71 1953.5 -419.91 1998.52 -430.97 2026.42 -432.87 2034.79 -423.92 2022.99 -404.76 1993.86 -376.28 1950.64 -339.7 1899.16 -296.95 1847.88 -248.69 1803.05 -197.65 1771.78 -145.63 1760.32 -92.48 1770.91 -40.98 1803.97 7.88 1856.66 55 1923.17 98.36 1995.63 137.84 2064.74 174.55 2121.7 207.47 2158.74 237.06 2171.18 264.11 2157.22 288.54 2118.97 310.97 2063.42 331.63 1998.48 351.12 1934.65 370.01 1883.44 387.92 1852.67 405.88 1848.18 424.33 1871.95 442.36 1920.38 461.29 1986.26 481.38 2059.24 501.36 2127.3 522.7 2178.93 545.48Q2178.93 545.48 2178.93 545.48" opacity="0.11"></path><path d="M2096.41 452.6C2122.21 473.95 2121.67 493.1 2095.28 510.06 2047.34 526.99 1984.55 541.67 1915.96 554.12 1851.05 566.49 1798.51 576.61 1764.96 584.5 1754.62 592.42 1767.74 598.26 1801.51 602.24 1851.44 606.63 1909.29 609.63 1966.78 611.72 2034.45 616.81 2047.17 634.18 1987.31 650.91 1927.9 667.44 1861.52 688.43 1795.12 714.67 1735.02 746.19 1687.04 783.47 1655.03 826.59 1641.29 873.98 1645.62 925.91 1665.91 981.21 1699.63 1036.92 1741.19 1092.53 1785.27 1145.72 1827.83 1193.2 1862.8 1233.75 1886.38 1264.97 1896.69 1285.19 1891.47 1293.44 1870.97 1289.11 1836.54 1274 1790.4 1248.73 1735.89 1215.8 1676.01 1180.54 1615.01 1145.43 1556.47 1115.16 1502.91 1095.51 1457.42 1088.95 1421.63 1098.63 1396.42 1126 1382.06 1170.28 1377.76 1229.27 1383.1 1297.78 1395.76 1370.68 1413.6 1441.05 1435.87 1501.14 1459.14 1545.36 1481.34 1568.64 1502.14 1569.11 1518.56 1547.08 1529.52 1506 1535.31 1453.88 1534.31 1397.98 1526.55 1348 1512.67 1314.29 1492.53 1302.84 1466.92 1318.02 1436.35 1359.86 1401.79 1423.79 1364.28 1501.65 1323.87 1581.8 1282.11 1652.69 1239.88 1703.05 1196.7 1725.04 1154.25 1715.34 1113.03 1675.97 1072.18 1615.84 1033.19 1545.91 996.21 1480.43 960.22 1434.3 926.36 1416.94 894.55 1433.76 863.81 1483.29 834.91 1556.96 807.65 1641.23 781.24 1719.54 756.14 1776.48 732.11 1800.18 708.62 1786.22 685.87 1737.21 663.67 1663.68 641.72 1583 620.07 1512.38 598.59 1468.29 577.19 1461.98 555.82 1494.91 534.46 1560.32 513.1 1643.55 492.01 1724.4 471.23 1784.45 450.52 1811 430.26 1797.52 410.61 1747.42 391.21 1671.8 372.66 1586.88 355.19 1510.49 338.26 1458.11 322.72 1439.66 308.85 1457.41 295.83 1507.06 284.81 1576.34 276.01 1649.92 265.63 1732.71 258.77 1702.89 262.04 1598.52 265.35 1515.93 270.33 1440.8 276.5 1384.83 281.71 1355.96 286.92 1357.09 291.26 1385.55 292.7 1435.52 291.68 1495.89 287.19 1555.19 277.73 1603.97 263.31 1632.31 243.17 1635.33 216.91 1612.23 184.43 1565.24 145.72 1500.59 101.85 1425.65 53.07 1349.93 0.51 1281.93 -53.44 1228.07 -107.89 1193.6 -160.72 1180.17 -209.12 1187.6 -251.72 1212.21 -286.37 1248.7 -311.37 1292.59 -325.66 1336 -328.45 1373.02 -320.65 1400.21 -302.49 1412.64 -275.56 1408.81 -243.65 1388.91 -208.59 1353.83 -173.93 1306.46 -144.64 1249.36 -123 1187.05 -112.32 1123.57 -115.58 1061.31 -133.37 1004.55 -165.92 955.54 -211.73 915.19 -268.17 885.03 -331.41 864.82 -396.15 854.32 -457.59 852.13 -510.36 856.47 -560.97 873.91 -545.54 919.72 -485.37 939.18 -434.62 949.39 -383.02 955.28 -337.49 956.63 -305.36 954.71 -290.64 948.16 -296.52 937.38 -323.81 923.42 -369.94 905.94 -430.29 885.62 -497.95 862.94 -565.03 838.35 -623.19 812.49 -665.21 785.21 -685.59 757.46 -681.51 729.76 -654.22 701.34 -606.93 673.51 -546.25 646.61 -481.88 619.43 -422.29 593.47 -376.48 568.96 -352.24 544.37 -352.78 521.35 -378.58 499.99 -426.4 478.64 -488.19 459.19 -554.56 441.59 -616.63 423.92 -664.41 407.97 -691.17 393.55 -693.75 378.85 -671.21 365.38 -626.87 352.83 -566.81 339.57 -498.87 326.68 -431.85 313.69 -374.06 299.27 -332.34 283.94 -311.08 267.08 -312.38 247.87 -334.57 226.19 -373.59 201.4 -424.56 173.43 -479.36 141.65 -530.55 105.65 -572.44 66.4 -598.55 23.04 -605.6 -24.17 -592.87 -73.21 -560.89 -124.63 -512.93 -177.25 -453.42 -228.28 -388.12 -277.59 -323.05 -323.23 -263.42 -362.65 -214.37 -395.02 -179.22 -418.54 -160.01 -432.35 -156.95 -435.68 -168.56 -428.26 -193.19 -412.17 -226.46 -387.76 -264.08 -357.26 -303.07 -325.55 -338 -294.41 -365.36 -267.87 -383.41 -251.05 -389.18 -245.91 -382.02 -255.31 -362.38 -280.77 -330.87 -321.86 -289.48 -377.04 -240 -442.05 -185.43 -512.78 -128.6 -583.3 -71.34 -646.43 -16.8 -696.98 32.99 -729.64 77.07 -741.44 113.75 -731.48 142.57 -701.38 163.41 -657.13 176.55 -604.43 182.86 -551.72 179.92 -496.54 150.11 -529.13 130.8 -621.06 117.74 -699.4 106.82 -778 98.74 -845.36 92.55 -891.2 90.09 -908.87 91.45 -895.66 95.6 -855.36 103.61 -795.01 115.15 -726.3 129.41 -664.18 146.7 -620.41 166.54 -605.16 188.49 -623.63 212.3 -673.57 237.46 -747.12 264.02 -830.87 291.3 -909.37 318.88 -967.27 347.26 -993.28 375.46 -982.11 403.19 -935.99 431.3 -865.88 458.63 -786.21 484.98 -714.81 511.47 -668.92 536.82 -658.61 560.9 -687.29 585.01 -749.46 607.78 -831.39 629.14 -914.63 650.5 -980.05 670.19 -1011.91 688.26 -1003.48 706.37 -957.27 722.93 -883.46 738.03 -798.56 760.27 -693.65 799.56 -688.54 817.68 -783.44 830.38 -859.47 843.02 -923.92 856 -963.29 870.38 -969.95 885.73 -941.48 902.53 -883.3 921.44 -805.77 942.49 -722.86 966.14 -648.85 992.5 -595.59 1021.97 -571.1 1054.83 -577.42 1090.48 -612.12 1129.5 -666.48 1171.76 -729.25 1215.91 -789.73 1262.4 -835.44 1310.54 -858.24 1358.38 -854.37 1405.99 -823.06 1452.11 -768.69 1494.72 -698.03 1533.38 -620.67 1566.66 -546.31 1613.23 -442.24 1575.78 -537.38 1535.52 -602.74 1507.99 -635.09 1482.08 -652.06 1460.6 -651.45 1447.2 -633.13 1443.02 -597.92 1450.01 -548.98 1469.48 -489.4 1501.19 -424.35 1544.45 -358.53 1597.03 -295.04 1656.47 -238.59 1719.22 -191.72 1780.59 -155.62 1836.86 -131.51 1883.74 -118.81 1926.79 -120.64 1908.38 -167.32 1853.22 -198.49 1807.2 -218.72 1760.13 -235.07 1717.99 -246.4 1679.69 -253.82 1718.04 -229.68 1794.25 -200.06 1859.33 -174.35 1927.11 -145.09 1990.13 -113.27 2041.2 -78.73 2074.52 -42.98 2085.98 -6.82 2074.9 30.62 2042.4 67.54 1992.85 103.43 1934.08 139.74 1873.4 174.53 1819.6 207.58 1781.52 240.65 1764.23 271.83 1771.04 301.06 1802.02 330.22 1853 357.44 1917.21 382.69 1985.72 407.92 2048.59 431.24 2096.41 452.6Q2096.41 452.6 2096.41 452.6" opacity="0.22"></path><path d="M2013.91 222.99C2038.77 242.92 2040.73 262.75 2019.89 282.54 1979.36 302.42 1924.04 322.43 1860.93 342.76 1797.72 363.44 1741.82 384.77 1699.52 407.04 1675.54 430.06 1671.85 454.45 1687.99 480.56 1721.99 507.82 1768.55 537.23 1821.57 569.03 1875.48 602.23 1922.85 638.02 1958.14 676.45 1978 715.96 1979.28 757.75 1961.82 801.45 1927.34 845.04 1878.84 889.39 1820.95 933.57 1758.58 975.43 1697.37 1015.21 1642.33 1051.57 1597.49 1082.82 1566.07 1108.52 1549.59 1127.45 1548.67 1139.19 1561.79 1143.01 1586.42 1138.6 1620.35 1127.49 1658.8 1109.4 1697.69 1085.56 1734.33 1059.52 1764.08 1031.9 1784.28 1005.4 1793.81 984.31 1790.8 969.88 1775.35 964.89 1748.33 971.97 1711.03 991.68 1665.69 1024.64 1614.22 1069.64 1559.64 1125.06 1504.64 1187.96 1450.93 1253.38 1401.32 1317.55 1357.45 1375.41 1320.21 1421.72 1290.78 1453.16 1269.31 1466.74 1255.89 1462.05 1249.83 1439.65 1250.11 1402.34 1256.54 1356.39 1267.08 1306.8 1280.31 1260.68 1296.25 1226.28 1312.37 1208.33 1327.5 1211.26 1342.08 1236.93 1353.86 1283.61 1362.24 1347.15 1367.98 1420.04 1369.55 1494.06 1366.91 1559.77 1360.9 1608.32 1350.8 1633.53 1336.99 1631.85 1320.06 1604.66 1300.04 1556.04 1277.49 1494.08 1252.58 1430.66 1225.91 1375.91 1198.01 1340.24 1168.6 1331.69 1138.65 1352.5 1108.57 1400.83 1077.69 1469.58 1047.17 1547.92 1017.3 1622.8 987.07 1681.27 957.78 1713.18 929.61 1712.56 901.31 1680.18 874.26 1621.58 848.55 1547.86 822.82 1474.35 798.48 1414.69 775.58 1381.19 752.69 1381.6 731.25 1415.88 711.31 1477.82 691.38 1555.32 673.19 1631.83 656.71 1692.1 640.23 1725.07 625.47 1723.7 612.37 1688.63 599.25 1626.83 587.76 1549.83 577.82 1471.95 563.44 1386.66 540.66 1400.77 531.27 1487.97 524.44 1556.86 517.85 1617.29 511.09 1658.46 502.82 1673.75 493.71 1659.48 483.24 1617.91 470.41 1555.13 455.46 1480.51 437.83 1404.9 417.1 1338.31 393.09 1289.73 365.43 1264.48 334.41 1264.76 299.64 1288.37 261.16 1329.91 220.05 1383.17 176.02 1438.33 129.68 1486.84 82.8 1522.6 35.43 1539.12 -11.22 1534.04 -55.17 1507.69 -95.91 1462.38 -131.98 1403.05 -161.91 1335.01 -184.94 1265.39 -200.04 1200.5 -207.1 1145.06 -205.62 1103.71 -195.72 1078.5 -179.21 1070.2 -156.34 1077.46 -128.76 1097.45 -99.88 1127.87 -70.81 1163.37 -44.2 1199.52 -17.17 1247.56 -25.16 1284.48 -66.79 1265.68 -109.16 1238.16 -160.39 1201 -217.78 1156.43 -277.42 1105.72 -335.91 1052 -389.14 997.6 -433.06 943.26 -464.73 891.93 -481.59 844.91 -482.89 802.19 -468.49 765.38 -439.87 734.56 -401.04 709.37 -355.26 689.84 -307.51 675.24 -246.87 662.31 -210.19 655.27 -247.99 656.41 -294.54 658.68 -352.28 660.17 -415.7 660.38 -478.21 660.9 -533.37 659.58 -575.07 656.19 -598.9 652.62 -601.99 646.84 -583.85 638.83 -547.4 630.55 -496.4 620.13 -437.13 607.64 -377.97 594.98 -325.63 580.4 -287.09 563.98 -268.25 547.51 -271.22 529.3 -296.08 509.36 -340.16 489.43 -396.85 468.01 -458.62 445.11 -518.35 422.16 -567.56 397.63 -600.14 371.47 -612.74 345.13 -603.2 317.01 -572.88 287.06 -525.56 256.83 -466.55 224.68 -402.65 190.66 -340.82 156.46 -287.69 120.52 -248.54 83.09 -227.12 45.99 -224.73 7.95 -240.52 -30.49 -272.53 -67.51 -315.75 -103.85 -364.67 -138.66 -414.55 -170.41 -458.63 -199.16 -492.04 -223.9 -511.87 -243.84 -515.03 -258.43 -501.11 -266.91 -471.31 -269.75 -427.79 -266.16 -374.25 -256.17 -314.59 -241.88 -253.65 -222.81 -195.85 -200.22 -144.74 -177.57 -103.79 -155.1 -74.98 -135.11 -58.27 -117.77 -100.19 -141.8 -145.43 -190.18 -179.32 -236.6 -211.27 -291.95 -238.56 -353.63 -260.04 -417.13 -272.81 -479.38 -275.93 -535.93 -269.5 -582.05 -253.02 -614.82 -227.37 -631.38 -193.49 -631.03 -152.9 -613.91 -107.44 -582.01 -58.16 -540.66 -7.44 -493.9 42.97 -448.03 92.46 -410.87 138.93 -387.03 181.4 -381.43 219.74 -397.1 252.88 -433.65 280.72 -488.69 303.39 -556.5 320.97 -630.2 334.02 -701.24 345.07 -780.89 348.32 -792.12 344.62 -723.57 340.47 -662.57 336.72 -601.74 333.89 -551.91 330.78 -523.29 329.22 -521.13 329.46 -547.65 330.09 -600.06 332.77 -670.87 337.52 -749.25 346.59 -850.26 375.35 -887.49 394.39 -811.44 408 -739.4 422.97 -667.31 439.14 -609.44 455.51 -578.31 472.9 -579.9 491.2 -614.85 509.55 -677.1 528.71 -754.62 548.65 -832.13 568.58 -894.08 589.05 -927.36 610.07 -925.79 631.14 -890.31 652.87 -827.67 675.33 -750.23 697.98 -672.56 721.55 -609.04 746.17 -570.81 771.19 -564.34 797.47 -589.45 825.16 -640.23 853.43 -707.41 883.29 -777.15 914.82 -836.41 946.98 -875.25 980.85 -885.69 1016.38 -865.9 1052.31 -818.99 1089.65 -752.13 1128.14 -675.75 1166.35 -600.84 1205.07 -538.41 1243.77 -496.61 1281 -480.3 1317.15 -490.08 1351.46 -522.41 1382.74 -571.89 1410.89 -628.89 1435.1 -684.01 1462.12 -743.84 1481.5 -728.95 1472.93 -654.8 1461.19 -587.93 1444.92 -516.86 1425.07 -448.74 1404.3 -389.26 1382.68 -343.99 1361.92 -315.75 1344.98 -305.79 1332.34 -313.01 1325.81 -334.46 1327.5 -367.46 1337.77 -406.12 1357.47 -445.41 1386.72 -482.19 1424.99 -510.87 1471.32 -528.52 1523.47 -534.14 1579.63 -525.91 1637.06 -504.47 1692.16 -470.96 1742.39 -427.44 1784.63 -376.7 1816.18 -320.56 1835.24 -262.74 1840.5 -205.98 1832.44 -151.41 1811.52 -102.07 1779.71 -59.21 1741.2 -23.04 1698.8 5.38 1656.93 26.38 1607.92 43.94 1592.68 44.58 1636.42 34.43 1684.44 24.8 1742.31 15.43 1805.14 7.21 1867.02 -1.09 1922.35 -7.1 1965.62 -10.45 1992.65 -12.7 2000.65 -11.95 1988.73 -8.24 1959.07 -3.15 1914.54 4.7 1860.4 15.02 1804.2 26.51 1751.97 40.04 1710.49 55.26 1686.01 71.22 1681.38 88.43 1697.92 106.58 1734.45 125.08 1786.63 144.18 1848.36 163.67 1912.13 183.25 1969.83 203.05 2013.91 222.99Q2013.91 222.99 2013.91 222.99" opacity="0.81"></path><path d="M1931.41 453.41C1955.21 471.92 1959.31 492.12 1943.57 513.92 1910.15 535.71 1862.5 559.05 1805.89 583.82 1746.3 608.47 1689.82 634.41 1642.03 661.42 1607.58 688.06 1589.36 715.48 1588.48 743.33 1604.91 770.35 1635.84 797.27 1677.48 823.63 1726.08 848.42 1775.6 871.88 1820.9 893.41 1870.71 920.63 1877.14 954.17 1831.61 958.22 1785.47 956.11 1731.71 949.63 1674.43 938.96 1617.42 926.12 1564.83 910.27 1519.97 892.31 1467.49 848.11 1535.92 845.74 1586.37 881.29 1619.23 916.78 1647.41 960.59 1668.82 1011.57 1682.72 1066.87 1687.13 1124.92 1681.76 1182.74 1667 1236.36 1643.09 1283.44 1611.25 1320.83 1572.53 1345.94 1528.76 1357.35 1481.77 1354.13 1432.59 1337.65 1383.52 1308.99 1336.09 1271.01 1290.9 1229.12 1249.7 1186.75 1213.22 1149.1 1181.61 1122.15 1155.54 1108.93 1134.9 1112.62 1119.65 1134.71 1109.31 1174.23 1103.25 1228.65 1101.52 1292.92 1102.83 1361.47 1106.34 1427.39 1115.93 1503.51 1138.12 1529.64 1147.43 1475.25 1152.9 1421.37 1156.41 1362.86 1157.79 1308.53 1157.3 1257.2 1143.37 1302.33 1130.39 1393.29 1120.12 1466.04 1108.16 1535.53 1094.75 1591.48 1080.63 1625.57 1065.37 1632.54 1049.18 1611.1 1032.57 1565.41 1015.3 1502.26 997.56 1432.08 979.62 1367.67 961.4 1319.28 943.02 1295.69 924.58 1301.95 906.08 1336.99 887.57 1395.32 869.06 1467.1 850.76 1538.94 832.64 1598.46 814.46 1636.3 796.36 1645.45 778.25 1624.73 759.94 1577.89 741.41 1512.45 722.52 1439.05 703.21 1369.03 683.25 1313.12 662.46 1279.25 640.96 1272 618.32 1291.2 594.33 1332.65 569.36 1389.97 542.77 1452.87 514.41 1511.31 484.93 1557.22 453.56 1582.65 420.27 1583.9 386.03 1560.83 350.05 1515.97 312.5 1455.18 274.67 1385.58 235.87 1315.82 196.58 1253.83 158.22 1205.94 120.41 1176.95 83.9 1168.65 50 1180.94 18.75 1210.37 -9 1251.86 -32.42 1300.63 -51.1 1348.99 -64.37 1390.83 -73.25 1429.99 -54.11 1400.4 -28.32 1335.31 -7.37 1277.91 15.74 1215.76 39.52 1153.51 61.12 1094.59 80.05 1043.41 94.51 1002.54 102.21 965.24 62.84 967.98 13.64 998.61 -29.62 1026.29 -79.03 1055.06 -132.48 1082.34 -186.93 1107.41 -240.05 1126.89 -288.84 1139.52 -330.24 1145.48 -362.07 1143.24 -382.24 1133.06 -389.84 1115.57 -384.31 1091.17 -366.12 1061.03 -337.77 1025.62 -300.99 986.6 -259.04 945.28 -216.82 901.61 -177.38 857.67 -144.81 814.42 -123.41 771.24 -115.1 730.02 -121.67 691.19 -143.71 653.81 -179.83 619.25 -227.65 587.49 -283.4 557.59 -342.56 530.31 -399.97 505.38 -450.43 482.07 -489.36 460.64 -512.93 440.7 -519.2 421.92 -507.27 404.1 -478.24 386.9 -435.88 370.36 -383.95 354.01 -328.03 337.55 -275.08 321.39 -230.2 304.85 -198.63 287.74 -184.74 270.7 -189.78 252.96 -213.58 234.45 -253.98 215.94 -305.64 196.88 -362.59 177.36 -419.27 157.91 -468.62 138.14 -505.31 118.24 -526.11 98.64 -528.19 79.21 -511.51 60.24 -478.06 41.94 -430.99 24.54 -375.06 8.41 -315.61 -6.55 -258.23 -19.72 -208.08 -30.68 -157.39 -43.35 -156.36 -51.52 -201.21 -46.33 -243.32 -40.36 -288.59 -31.62 -332.49 -20.51 -403.04 13.13 -333.4 35.57 -259.02 20.81 -203.43 1.51 -147.79 -25.26 -95.29 -59.74 -48.35 -100.9 -9.54 -148.42 19.69 -201.01 38.45 -255.81 46.68 -311.61 45.11 -365.77 34.22 -414.8 16.23 -456.93 -6.76 -489.52 -33.8 -510.59 -61.64 -519.03 -88.18 -514.2 -112.74 -497.59 -132.53 -470.09 -146.35 -434.26 -154.21 -395.09 -154.64 -355.42 -147.65 -319.87 -133.71 -294.01 -112.9 -280.49 -86.08 -282.43 -53.84 -301.54 -17.34 -337.27 22.2 -387.8 64.48 -448.91 107.83 -515.88 151.21 -582.56 194.7 -641.97 236.69 -688.63 276.59 -717.44 314.77 -725.65 350.08 -712.47 382.39 -679.65 412.14 -632.72 438.81 -577.29 462.58 -521.26 493.13 -458 539.89 -462.53 558.02 -537.22 568.23 -606.1 577.85 -678.63 587.24 -744.78 600.04 -808.65 627 -770.64 642.24 -681.25 652.5 -613.27 663.95 -552.38 676.68 -509.19 689.34 -492.12 703.38 -504.02 718.89 -543.71 734.37 -605.06 751.35 -677.84 769.86 -749.63 788.37 -807.96 808.19 -842.08 829.27 -846.5 850.33 -821.08 872.6 -769.92 896 -701.86 919.31 -628.02 943.66 -560.3 968.9 -509.18 993.92 -482.31 1019.64 -482.97 1045.86 -509.9 1071.59 -558.7 1097.5 -620.2 1123.31 -684.14 1148.19 -741.28 1172.51 -781.65 1195.88 -799.16 1217.76 -791.51 1238.12 -759.06 1256.54 -706.32 1272.85 -639.95 1286.64 -568.63 1297.51 -501.18 1308.32 -426.06 1309.05 -406.97 1299.02 -458.68 1289.51 -508.09 1277.47 -559.41 1263.47 -605.77 1242.41 -652.74 1206.24 -633.87 1197.29 -569.76 1198 -511.52 1204.21 -447.93 1216.76 -384.18 1236.25 -324.34 1262.63 -273.19 1295.88 -233.63 1335.1 -207.33 1379.73 -195.04 1428.55 -195.89 1479.35 -209.01 1530.87 -231.25 1580.99 -259.47 1627.08 -291.9 1667.54 -323.99 1700.29 -352.82 1730.22 -385.71 1720.47 -396.07 1683.36 -371.45 1650.13 -343.84 1613.1 -309.25 1575.43 -269.34 1541.53 -224.75 1513.62 -177.82 1494.77 -130.13 1488 -81.78 1494.18 -35.09 1513.98 9 1546.92 50.94 1591.14 89.09 1643.93 123.28 1701.39 154.13 1759.48 180.97 1813.62 204.16 1859.32 224.11 1892.93 241.05 1911.44 255.56 1913.66 267.62 1899.19 278.09 1869.37 287.57 1828.04 295.48 1778.66 303.16 1726.35 311.05 1677.56 318.1 1636.79 325.91 1608.76 334.77 1597.51 343.26 1604.14 353.11 1628.6 364.52 1668.96 375.8 1721.07 388.77 1779.61 403.55 1838.41 418.3 1891.01 434.9 1931.41 453.41Q1931.41 453.41 1931.41 453.41" opacity="0.68"></path><path d="M1848.91 544.98C1871.55 562.07 1877.43 578.05 1866.29 592.89 1839.58 607.68 1799.6 621.24 1750.18 633.46 1572.5 679.48 1774.52 672.64 1798.42 657.36 1748.28 657.79 1660.02 669.13 1556.02 697.9 1458.5 747.33 1388.16 818.2 1355.21 908.19 1362.01 1005.49 1399.32 1101.95 1452.46 1182.04 1509.96 1230.66 1553.27 1240.05 1572.66 1207.57 1565.62 1147.83 1529.87 1076.59 1471.21 1020.49 1395.18 1007.53 1311.36 1048.44 1228.08 1141.59 1148.58 1262.31 1080.11 1376.27 1024.43 1444.63 980.84 1444.56 949.37 1377.82 927.05 1274.31 913.47 1187.32 904.03 1158.84 895.55 1211.48 890.45 1327.93 882.75 1458.08 870.87 1540.3 859.56 1535.14 842.92 1444.91 820.51 1317.58 802.96 1244.96 760.55 1240.62 735.66 1312.82 718.57 1378.88 700.21 1445.77 680.6 1503.63 660.99 1544.79 640.13 1562.69 618.07 1555.05 573.91 1471.86 524.97 1339.65 471.83 1226.74 419.26 1187.22 363.65 1234.73 306.76 1337.79 253.24 1444.51 201.98 1497.44 156.34 1471.34 119.44 1375.84 93.17 1248.61 80.65 1137.64 80.21 1078.89 94.21 1086.41 121.04 1145.92 168.13 1267.4 215.92 1279 172.59 1143.68 108.41 1032.17 22.45 934.24 -75.39 864.56 -168.88 829 -244.25 826.51 -286.62 847.32 -289.25 885.26 -252.03 924.15 -184.99 954.18 -111.47 974.44 -51.06 976.25 -25.97 960.62 -50.45 930.87 -121.64 888.57 -224.07 838.76 -329.72 782.05 -408.41 724.14 -435.08 668.34 -402.97 611 -321.68 558.36 -219.58 511.55 -173.54 488.12 -136.12 466.22 -111.13 445.9 -101.69 425.59 -108.44 406.86 -131.08 389.77 -167.88 372.69 -214.57 357.44 -266.55 344.01 -319.56 330.57 -367.86 318.95 -406.98 309.1 -446.34 289.35 -422.35 276.4 -344.27 269.3 -237.71 260.65 -135.89 255.25 -68.17 249.96 -51.9 237.77 -86.18 219.39 -154.63 189.92 -236.25 146.34 -301.36 86.78 -330.39 10.42 -315.92 -75.71 -258.22 -169.07 -170.67 -259.68 -69.45 -333.17 25.49 -381.55 99.29 -394.9 143.5 -374.12 155.68 -323.12 141.33 -256.4 105.65 -200.74 62.66 -173.62 23.27 -193.63 -8.39 -264.87 -22.08 -374.74 -15.96 -495.89 8.13 -590.99 49.69 -631.64 103.81 -603.38 168.25 -522.9 237.04 -423.52 305.85 -353.05 375.67 -351.98 440.92 -427.15 500.4 -553.15 557.3 -675.5 608.28 -739.34 654.07 -713.03 697.81 -613.32 737.91 -491.17 775.34 -414.72 793.82 -410.45 811.88 -430.88 829.56 -473.74 847.21 -533.3 864.57 -601.06 881.65 -667.13 907.04 -738.9 955.25 -729.47 977.78 -652.2 1006.91 -518.12 1032.4 -417.82 1053.11 -399.44 1071.77 -468.47 1084.1 -582.29 1089.19 -679.46 1091.72 -712.84 1087.16 -662.12 1076.55 -550.09 1061.44 -374.24 1056.05 -374.66 1091.06 -500.22 1137.62 -557.8 1202.17 -560.67 1282.74 -507.37 1371.02 -410.92 1460.94 -297.03 1541.4 -192.5 1615.78 -96.46 1565.25 -131.38 1471.17 -198.81 1419.2 -236.14 1394.61 -252.54 1410.62 -245.87 1470.13 -218.53 1563.1 -172.13 1669.76 -113.34 1763.26 -44.25 1819.79 27.25 1822.8 96.45 1774.36 166.1 1688.87 229.43 1595.49 285.76 1530.6 340.18 1516.66 388.31 1562.79 431.01 1605.29 452.07 1656.14 472.04 1710.87 491 1764.55 509.9 1812.11 527.89 1848.91 544.98Q1848.91 544.98 1848.91 544.98" opacity="0.23"></path><path d="M1766.43 259.71C1795.48 291.03 1767.71 318.19 1693.19 341.82 1594.87 366.2 1500.94 388.59 1436.86 410.82 1418.73 436.3 1447.47 464.88 1510.88 499.34 1591.72 540.65 1663.7 591.18 1707.17 652.45 1712.46 720.55 1675.4 797.16 1604.54 878.54 1513.16 955.32 1418.94 1024.63 1337.77 1077.74 1280.44 1107.71 1253.35 1110.83 1255.04 1085.54 1282.31 1041.39 1323.82 984.91 1368.67 931.38 1411.31 901.44 1439.96 905.06 1450.19 950.93 1442.28 1034.71 1414.54 1142.4 1370.71 1250.05 1313.58 1329.07 1248.48 1359.52 1180.44 1331.8 1110.04 1259.64 1043.11 1167.56 981.73 1092.66 923.92 1070.66 872.96 1114.2 828.23 1214.2 787.44 1335.35 751.26 1432.35 718.25 1465.09 687.37 1421.43 657.71 1319.43 628.17 1205.56 599.19 1136.59 569.24 1145.01 537.91 1230.33 506.59 1353.14 474.64 1451.34 442.6 1479.14 411.13 1425.52 380.66 1314.07 352.47 1194.45 326.4 1115.88 304.55 1107.74 288.51 1166.6 274.07 1312.16 289.35 1353.84 315.31 1205.9 339.49 1051.78 342.04 1021.08 295.69 1118.26 240.63 1183.34 168.98 1219.96 85.27 1218.69 -0.62 1179.59 -81.22 1108.77 -145.48 1019.99 -184.16 923.77 -191.95 835.6 -167.24 764.09 -118.69 712.05 -54.82 681.96 8.61 669.93 51.53 674.15 63.06 686.73 34.81 701.5 -31.62 719.78 -123.99 732.76 -222.51 738.29 -303.59 741.07 -347.29 735.37 -341.25 722.11 -289.26 706.23 -204.55 684.66 -112.43 658.87 -44.11 632.25 -19.51 602.97 -48.56 571.65 -124.32 540.32 -220.1 507.7 -305.49 473.3 -356.8 438.07 -356.53 399.53 -305.75 356.33 -219.02 310.52 -119.25 258.19 -31.8 198.58 23.3 136.22 35.79 67.61 7.82 -4.94 -51.88 -74 -122.91 -139.52 -185.74 -195.18 -227.37 -234.59 -234.53 -254.44 -205.77 -250.68 -145.88 -227.46 -64.51 -185.91 25.06 -134.51 112.29 -90.55 185.14 -62.74 237.42 -64.69 266.55 -104.47 273.61 -180.18 263.61 -282.24 239.07 -388.88 209.49 -478.83 181.35 -528.86 155.15 -527.13 138.88 -474.95 134.19 -390.05 138.75 -307.77 155.15 -257.83 181.27 -265.91 215.05 -336.76 254.96 -449.91 298.25 -566.77 345.23 -643.32 392.47 -650.15 438.19 -583.69 484.99 -476.16 528.82 -373.93 568.82 -326.48 608.98 -360.45 644.93 -461.82 676.25 -584.63 707.58 -669.97 733.54 -675.23 754.4 -600.09 775.41 -480.02 791.71 -368.79 803.98 -313.03 817.34 -333.66 828.12 -415.7 837.98 -519.17 851.52 -601.5 867.24 -624.65 887.75 -579.71 915.91 -481.85 952.45 -364.25 999.31 -264.14 1055.44 -208.46 1121.64 -208.55 1196.11 -254.94 1272.53 -329.97 1348.74 -402.79 1418.1 -449.58 1472.93 -458.48 1508.89 -423.01 1520.82 -352.01 1509.6 -257.44 1475.85 -157.94 1425.61 -68.97 1349.77 22.9 1321.85 48.46 1410.17 13.43 1500.94 -16.51 1597.49 -40.19 1680.17 -54 1731.11 -60.99 1739.03 -55.89 1701.6 -40.37 1631.84 -18 1547.02 11.43 1472.38 45.03 1433.68 81.87 1442.61 119.6 1500.11 156.24 1591.69 193.62 1690.64 228.37 1766.41 259.7Q1766.43 259.71 1766.43 259.71" opacity="0.87"></path><path d="M1683.91 339.03C1712.64 367.51 1694.09 401.13 1634.37 439.73 1549.1 478.51 1458.65 522.52 1383.85 571.45 1340.69 620.3 1336.25 673.27 1367.9 728.84 1427.93 781.62 1498.61 833.39 1562.91 880.58 1609.04 918.84 1624.4 946.61 1606.27 960.06 1557.91 959.7 1486.55 943.28 1403.72 912.02 1319.53 875.05 1245.64 834.43 1189.38 799.22 1154.58 782.12 1142.02 787.69 1148.31 822.3 1171.26 885.46 1202.49 971.81 1235.37 1069.77 1280.61 1195.17 1305.96 1222.84 1281.08 1118.98 1251.32 1042.94 1213.49 990.82 1170.48 984.12 1122.5 1031.34 1073.01 1122.39 1024.1 1232.79 973.74 1328.15 925.87 1378.29 881.39 1365.02 836.87 1295.14 796.15 1192.67 759.5 1097.08 722.94 1049.01 690.32 1067.38 661.84 1147.82 633.36 1259.47 609.7 1354.83 590.79 1396.75 571.98 1371.03 558.04 1286.57 548.86 1175.48 537.19 1048.92 530.14 1127.64 528.23 1254.78 521.89 1309.41 511.59 1314.21 494.6 1268.2 468.22 1182.81 431.82 1079.72 384.01 983.07 326.51 911.03 259.48 876.44 185.82 879.6 112.2 915.82 41.86 969.73 -18.4 1025.55 -73.51 1087.09 -40.1 1051.17 35.52 962.85 88.7 887.27 132.46 809.68 155.42 736.24 148.14 667.52 109.59 609.35 42.57 562 -42.59 523.56 -131.81 494.15 -207.9 471.08 -255.63 453.81 -264.78 439 -232.61 424.19 -168.8 411.59 -86.73 396.49 -7.1 377.57 46.97 359.08 62.64 335.84 33.91 307.37 -33.58 278.89 -119.63 245.86 -201.38 208.87 -260.32 172.33 -279.67 132.78 -255.62 91.67 -194.55 52.77 -109.68 14.83 -19.64 -19.56 83.42 -58.74 86.93 -77.23 7.25 -50.25 -54.41 -23.57 -103.96 8.62 -131.95 40.31 -134.98 60.57 -110.02 66.54 -61.23 50.95 5.95 10.01 83.04 -55.48 161.45 -141.14 236.01 -234.28 299.37 -323.73 348.52 -393.59 382.62 -430.39 401.81 -427.51 408.86 -385.13 404.43 -318.14 393.91 -242.64 381.15 -182.65 365.02 -162.02 351.83 -190.03 343.45 -265.52 336.74 -370 336.46 -475.59 342.48 -550.07 351.12 -570.24 365.27 -529.28 383.94 -441.01 404.21 -340.9 427.64 -264.82 453.31 -244.7 479.43 -292.24 506.93 -390.47 535.4 -502.13 563.88 -582.59 592.67 -598.09 622.01 -544.41 651.81 -443.19 683.04 -332.33 716.47 -251.45 751.51 -227.18 790.11 -263.7 833.14 -342.99 878.79 -437.32 929.65 -509.83 985.71 -536.19 1043.43 -508.63 1104.75 -433.3 1167.64 -331.86 1227.15 -228.65 1283.07 -148.96 1331.4 -107.43 1368.23 -108.94 1391.43 -146.07 1398.07 -203.42 1389.67 -267.76 1365.41 -318.57 1328.18 -344.4 1287.09 -341.69 1245.54 -308.16 1211.98 -250.31 1196.82 -174.36 1203.57 -91.35 1236.25 -10.49 1293.89 64.65 1371.03 126.46 1458.1 173.58 1541.32 206.89 1608.25 227.24 1646.51 238.33 1650.06 240.49 1617.74 239.3 1556.17 238.18 1482.2 234.29 1410.93 234.07 1360.85 238.92 1347.79 243.69 1375.52 254.34 1440.09 271.03 1527.47 287.9 1616.41 310.55 1683.91 339.03Q1683.91 339.03 1683.91 339.03" opacity="0.41"></path><path d="M1600.97 576.54C1629.22 602.17 1619.04 627.66 1573.7 652.51 1503.25 676.77 1421.37 699.25 1343.8 718.7 1268.09 742.24 1303.29 754.7 1387.44 739.71 1448.14 724.85 1496.47 704.63 1524.45 681.71 1529.21 663.63 1508.06 650.07 1464.45 646.15 1403.26 657.63 1331.82 685.72 1257.97 732.69 1186.97 795.99 1125.77 872.99 1077.8 956.94 1044.47 1036.26 1026.15 1103 1020.72 1146.51 1027.51 1160.27 1041.64 1141.85 1059.31 1094.21 1080.89 1030.97 1100.32 963.91 1115.37 910.73 1128.25 889.38 1134.44 907.02 1133.86 965 1129.39 1052.63 1118.7 1151.48 1102.87 1237.53 1084.1 1288.49 1061.78 1290.71 1037.16 1242.58 1011.11 1160.5 984.14 1067.3 957.12 992.89 929.74 964.07 903.04 990.16 877.41 1065.07 851.78 1165.42 827.83 1255.9 805.28 1307.68 782.38 1306.42 760.17 1251.58 737.88 1160.89 714.16 1060.27 689 977.76 661.28 933.72 630.6 937.45 595.78 983.3 555.83 1054.68 511.99 1133.35 462.49 1194.8 407.53 1223.6 350.4 1214.05 290.11 1166.29 229.03 1090.97 171.86 1000.68 119.58 912.19 76.12 838.76 36.45 776.88 56.74 812.42 112.07 872.74 155.67 914.04 198.57 944.84 233.07 961.42 250 964.62 246.31 951.69 218.69 925.16 167.85 887.12 98.63 840.83 19.14 790.2 -59.1 734.96 -125.15 680.21 -167.87 628.13 -180.71 575.85 -160.71 527.96 -111.01 484.9 -43.33 442.65 31 404.95 96.38 371.58 136.64 338.55 144.23 309.23 115.98 283.6 56.27 257.97 -19.86 236.64 -95.84 219.75 -174.87 197.46 -126.32 180.55 -17.89 186.54 63.23 192.12 134.77 201.36 186.8 212.18 213.11 218.4 212.65 221.37 189.12 217.33 146.64 201.77 95.98 173.86 46.42 131.15 3.1 75.07 -24.63 6.12 -33.36 -71.84 -23.22 -149.89 6.26 -222.96 51.39 -281.8 108.98 -318.11 173.55 -327.37 240.02 -307.12 306.39 -263.95 367.42 -204 420.92 -140.4 467.1 -91.76 504.17 -68.84 533.01 -82.14 554.27 -133.81 569.49 -216.15 580.69 -313.6 589.96 -435.04 605.54 -419.78 617.98 -293.92 626.86 -213.12 639.57 -165.83 656.45 -169.64 673.3 -226.48 694.45 -319.56 720.08 -419.91 745.71 -494.82 775.21 -518.32 808.29 -484.42 841.32 -404.95 877.8 -304.2 917.26 -212.23 956.26 -154.21 997.53 -144.19 1040.08 -180.68 1080.75 -252.27 1120.89 -334.44 1158.73 -403.28 1191.94 -442.47 1220.03 -439.23 1240.85 -395.02 1254.09 -318.98 1257.87 -227.08 1251.2 -137.15 1237.19 -62.83 1214.32 -15.87 1184.62 0.62 1154.82 -12.61 1125.44 -47.37 1101.44 -93.09 1089.9 -143.45 1092.4 -185.26 1112.52 -211.89 1151.52 -222.19 1207.79 -212.13 1277.8 -184.11 1354.05 -140.69 1429.54 -86.28 1494.88 -26.11 1541.27 38.88 1562.62 102.41 1555.1 161.69 1521.85 218.65 1467 269.06 1400.33 313.02 1337.14 353.37 1287.83 388.41 1263.82 419.43 1272.98 448.31 1314.24 475.02 1381.48 500.68 1462.52 525.75 1541.26 550.91 1600.97 576.54Q1600.97 576.54 1600.97 576.54" opacity="0.09"></path><path d="M1518.52 354.8C1545.41 377.59 1541.85 395.62 1509.4 409.17 1454.18 422.88 1384.64 432.45 1311.71 438.52 1245.68 445.53 1195.42 450.24 1166.54 454.01 1162.05 460.81 1179.91 469.19 1215.3 481.28 1263.92 499.67 1316 524.86 1363.85 558.73 1403.39 600.86 1427.26 652.38 1433.03 712.61 1421.16 776.89 1391.68 844.48 1348.03 910.68 1293.23 968.42 1232.2 1014.46 1169.57 1043.12 1107.52 1051.63 1050.73 1038.34 1001.35 1004.22 959.68 957.19 927.22 902.09 903.32 849 887.6 811.31 878.43 795.56 873.91 808.74 874.54 852.43 876.91 921.74 879.33 1006.74 885.04 1127.25 884.14 1189.27 874.86 1104.13 867.19 1023.3 855.68 946.62 840.34 894.31 824.89 882.33 805.79 913.87 783.01 982.6 760.22 1071.55 734.3 1155.36 705.37 1212.68 676.34 1231.08 644.13 1204.98 608.83 1141.82 573.34 1056.36 534.75 967.9 493.45 895.05 452.44 851.46 409.46 843.77 365.53 869.73 323.63 923.04 282.76 988.59 244.72 1051.57 211.84 1101.83 184.69 1127.06 165.3 1123.46 154.09 1092.14 152.64 1037.19 161.71 967.16 178.49 889.25 204 813.86 236.19 748.33 268.96 696.26 301.56 661.67 329.45 644.04 346.21 642.68 350.31 653.5 338.47 671.89 308.97 697.28 263.03 722.66 203.17 744.67 135 765.07 64.35 778.38 -0.96 784.1 -69.39 782.18 -58.39 741.21 18.52 708.77 82.67 684.52 145.51 659.39 196.21 634.45 224.16 609.07 225.41 584.76 198.52 561.97 146.68 539.19 80.67 518.48 12.06 499.49 -49.74 480.05 -92.85 461.46 -110.91 442.74 -102.56 422.27 -68.09 399.97 -13.12 374.43 54.92 345.25 127.08 310.92 194.47 270.3 250.18 225.1 288.62 173.29 307.61 115.48 306.33 56.06 288.1 -5.62 257.62 -66.12 217.66 -119.63 176.2 -164.36 138.61 -195.59 106.52 -210.56 85.89 -207.25 78.29 -185.04 82.84 -149.36 100.6 -102.41 129.58 -51.4 168.17 -8.27 213.78 21.3 263.46 28.9 316.77 8.78 370.03 -38.52 421.34 -109.1 471.81 -192.4 518.42 -276.51 560.74 -346.52 600.62 -389.18 636.3 -396.32 668.28 -365.58 698.17 -305.6 725.34 -228.01 750.52 -151.34 774.61 -96.98 797.7 -77.58 820.35 -100.49 842.7 -162.31 865.18 -248.43 887.96 -337.38 910.74 -406.11 933.29 -435.34 955.31 -418.86 977.04 -362.04 997.67 -278.65 1016.55 -189.03 1041.84 -89.66 1072.55 -113.12 1074.55 -209.51 1067.64 -303.19 1028.15 -325.87 1001.48 -245.55 986.91 -168.74 975.22 -88.27 969.22 -14.34 972.84 46.67 986.36 88.39 1011.67 109.74 1049.13 110.94 1098.19 96.19 1157.18 71.04 1221.67 37.44 1288.5 3.76 1352.19 -25.41 1426.54 -58.12 1459.68 -60.26 1410.73 -32.51 1360.05 -5.12 1302.72 26.95 1247.52 61.49 1205.41 99.04 1181.82 136.54 1182.26 172.49 1209.11 209.39 1258.92 243.54 1325.24 274.21 1398.36 305.03 1466.68 332.02 1518.52 354.8Q1518.52 354.8 1518.52 354.8" opacity="0.66"></path><path d="M1436.41 250.12C1461.27 270.05 1462.77 291.95 1441.51 315.89 1401.01 340.11 1345.91 366.9 1283.15 396.62 1219.65 427.25 1162.25 461.5 1116.51 499.6 1086.41 538.88 1073.64 582.04 1077.71 628.61 1097.97 675.08 1129.74 723.28 1168.37 771.42 1211.44 815.65 1252.14 856.06 1286.4 889.8 1320.67 921.2 1310.83 907.28 1269.31 861.85 1229.91 823.21 1184.67 781.39 1136.21 742.06 1085.11 713.5 1034.62 698.6 986.43 702.23 939.93 727.17 897.54 772.42 859.62 834.96 825.01 907.46 794.78 982.27 768.41 1049.25 744.99 1098.4 724.38 1122.65 705.77 1117.28 689 1084.3 673.09 1027.86 657.3 957.73 642.34 889.04 626.68 833.08 609.87 801.86 593.26 803.7 575.07 838.38 555.14 900.32 535.2 977.83 513.99 1053.4 491.78 1112.14 469.76 1144.51 447.16 1143.21 424.52 1109.47 402.72 1049.9 381.7 974.94 362.3 897.48 323.14 787.58 319.57 907.01 340.66 979.39 358.13 1012.78 378.94 1027.47 401.52 1022.45 421.46 999.01 439.33 959.17 452.6 907.56 457.45 847.28 453.65 784.33 439.33 723.19 413.37 665.2 376.19 614.8 328.66 573.21 273.64 539.91 213.62 515.65 152.78 499.04 96.36 489.6 48.35 485.12 13.48 483.54 -5.2 485.84 -5.41 488.35 13.43 489.58 47.93 492.16 95.81 491.97 151.61 488.32 206.68 484.89 255.91 477.55 292.47 466.06 309.79 454.57 306.27 438.91 281.41 418.98 237.33 399.04 181.51 375.31 121.59 347.98 63.51 320.64 16.27 289.72 -14.6 255.56 -26.99 221.62 -18.36 184.87 9.69 146.13 53.8 108.73 109.55 70.82 171.1 33.97 233.41 1.01 290.76 -28.19 338.92 -51.48 386.41 -71.37 394.47 -51.33 364.38 -11.5 335.22 21.1 304.7 56.68 275.84 90.84 237.83 123.81 204.98 94.25 212.75 21.67 226.7 -44.59 246.91 -117.64 271.95 -189.21 301.26 -249.65 333.38 -291.79 366.92 -308.85 402.56 -299.02 438.09 -262.81 472.56 -205.6 507.73 -139.39 541.06 -73.94 572.07 -22.06 603.19 3.98 631.75 -0.55 657.51 -36.86 683.26 -99.53 706.2 -177.12 726.13 -254.63 746.07 -316.58 762.52 -349.25 775.6 -347.17 788.67 -312.01 798.37 -250.2 804.84 -173.81 811.43 -95.98 815.02 -30.02 816.02 14.21 817.72 30.84 817.6 19.57 816.5 -14.96 817.51 -67.32 819.08 -125.89 822.5 -180.61 830.19 -225.37 841.75 -251.31 858.53 -255.5 881.53 -238.38 911.11 -201.28 947.77 -149.19 990.38 -86.31 1039.08 -19.62 1092.55 45.14 1147.53 105.22 1202.94 155.56 1255.64 194.51 1301.71 221.94 1339.01 237.8 1364.35 244.03 1376.16 241.02 1372.97 232.39 1354.52 220.89 1324.14 205.47 1283.03 190.96 1235.34 179.04 1188.4 167.01 1145.63 159.25 1112.77 156.14 1095.95 154.2 1096.84 156.89 1116.93 163.85 1155.5 171.72 1208.61 183.19 1270.63 197.79 1334.49 212.69 1392.33 230.18 1436.41 250.12Q1436.41 250.12 1436.41 250.12" opacity="0.58"></path><path d="M1353.91 534.73C1376.55 551.81 1382.01 570.93 1370.38 591.77 1343.58 612.41 1303.7 634.35 1254.69 656.99 1145.98 699.58 1051.1 739.06 994.35 766.85 986.48 780.63 1019.82 772.27 1075.65 738.28 1167.07 667.8 1199.64 617.06 1134 732.2 1068.39 853.04 997.35 968.06 928.84 1031.86 859.03 1019.02 797.16 932.19 744.82 812.24 718.98 762.57 695.35 728.32 673.95 715.51 652.62 727.71 633.38 763.25 616.29 817.82 599.2 883.88 584.68 949.96 572.72 1006.34 560.85 1046.62 551.68 1063.94 545.29 1056.63 533.19 977.26 532.89 848.58 543.48 730.81 552.77 667.66 567.54 675.35 580.48 734.38 578.25 819.85 559.6 888.01 516.26 916.27 447.52 902.38 356.44 847.21 254.73 768.84 163.32 675.61 99.33 586.17 82.15 509.36 113.85 439.25 189.28 383.44 284.81 338.51 327.22 317.39 362.07 297.79 385.49 279.31 393.74 261.08 386.55 243.49 363.91 226.4 327.11 209.31 281.15 193.14 230.78 178.09 156.17 156.68 68.79 116.28 150.93 123.99 251.61 141.58 355.26 174.74 439.28 215.3 492.1 241.01 509.85 247.13 500.57 216.24 468.46 143.2 431.4 34.54 400.75 -86.51 373.58 -181.13 362.68 -219.48 367.48 -181.39 380.08 -88.67 403.89 20.54 434.29 86.74 450.44 87.47 467.29 65.14 484.44 21.49 501.76 -38.26 519.06 -106.06 536.15 -172.13 561.47 -243.62 609.76 -233.55 633.81 -157.65 667.86 -24.52 706.21 81.77 752.84 119.67 807.26 80.92 874.43 -3.44 954.28 -88.7 1037.59 -146.76 1123.71 -149.25 1200.61 -100.72 1254.68 -13.99 1277.44 88.17 1260.21 184.75 1211.77 271.42 1138.76 336.05 1063.13 381.5 1016.91 412.93 1014.62 435.62 1065.99 457.47 1109.53 467.06 1160.81 477.91 1215.67 490.55 1269.42 502.99 1317.11 517.64 1353.91 534.73Q1353.91 534.73 1353.91 534.73" opacity="0.97"></path><path d="M1271.43 469.14C1300.14 497.62 1280.6 514.59 1220.9 520.18 1136.48 525.18 1046.07 518.53 968.21 502.3 903 481.77 944.02 491.2 1004.37 565.07 1044.52 645.86 1071.51 743.43 1083.03 840.59 1084.33 913.74 1071.41 946.41 1048.37 924.94 1018.98 859.09 985.14 765.04 950.86 677 915.03 634.85 881.91 654.89 853.43 735.33 824.96 846.98 802.47 939.98 784.6 979.56 765.17 955.8 747.2 876.04 727.24 770.09 700.93 667.19 666.95 595.3 621.76 565.58 566.36 578.87 498.49 620.96 421.01 673.09 343.34 728.52 269.56 766.95 211.17 783.23 177.57 782.35 175.38 761.42 208.05 727.82 265.03 684.86 339.23 638.94 412.66 595.98 461.37 551.26 475.14 513.47 446.43 484.99 378.93 456.52 295.41 438.71 218.62 429.72 162.46 418.97 144.18 413.09 165.19 406.7 219 390.94 295.62 364.98 379.94 321.97 462.53 261.81 531.6 182.49 582.43 89.74 622.64 -66.45 605.45 126.77 614.62 171.33 623.93 120.78 642.63 22.02 671.1 -89.63 699.58 -170.09 736.48 -184.37 780.87 -131.24 825.4 -32.22 877.23 78.03 934.25 164.76 989.02 207.11 1044.66 199.99 1095.47 156.5 1135.17 88.99 1160.7 25.18 1165.8 -18.28 1152.3 -39.31 1116.99 -29.47 1064.06 4.4 1009.39 56.84 958.31 118.85 925.37 181.17 925.22 246.75 959.7 305.2 1026.84 353.9 1114.61 402.03 1203.91 440.66 1271.41 469.13Q1271.43 469.14 1271.43 469.14" opacity="1.00"></path><path d="M1188.63 223.66C1215.44 246.44 1210.85 268.03 1177.84 289.6 1123.21 312.94 1054.85 339.57 983.31 372.29 915.82 410.61 860.03 458.73 819.69 517.53 796.01 581.15 787.57 651.58 790.45 722.47 813.55 806.08 866.29 824.93 880.1 744.04 885.94 673.65 884.07 605.96 874.7 559.53 864.72 551.34 848.24 583.93 825.46 652.66 802.68 741.61 774.67 823.36 741.69 877.56 708.09 895.68 668.52 871.71 623.2 814.27 576.94 734.98 525.36 649.88 470.57 573.43 418.38 512.7 367.77 474.61 323.76 457.9 291.02 461.17 272.45 476.82 272.41 497.13 289.03 523.74 324.38 545.64 375.17 559.33 430.01 571.9 485.41 574.75 531.25 568.21 555.47 560.66 555.44 545.27 528.63 522.49 476.84 499.71 412.87 470.61 348.6 435.2 290.22 398.77 250.59 354.47 234.26 302.42 239.94 249.26 268.34 189.84 313.7 128.12 371.55 72.69 435.06 24.34 497.88 -8.78 559.22 -21.93 613.43 -10.85 659.14 26.15 698.7 78.87 730.69 143.54 756.98 206.13 779.25 246.88 799.13 257.88 818.65 230.97 837.06 167.97 857.25 81.61 880.03 -7.33 902.81 -76.06 927.11 -104.03 951.66 -87.05 975.11 -31.83 996.67 48.82 1013.88 135.91 1027.08 215.06 1032.6 272.37 1028.15 302.78 1017.56 305.44 996.05 286.62 964.57 255.78 931.61 214.75 895.11 177.02 860.99 148.51 839.35 124.83 831.37 114.23 842.4 115.39 875.43 122.15 928.02 136.96 995.19 156.59 1068.26 177.98 1136.84 200.88 1188.63 223.66Q1188.63 223.66 1188.63 223.66" opacity="0.24"></path><path d="M1106.41 436.37C1135.35 470.55 1094.4 529.81 1008.06 603.32 902.2 668.22 805.17 725.14 734.28 744.92 688.19 721.63 663.32 645.81 645.96 543.03 636.93 477.32 618.96 480.8 584.79 570.32 550.61 704.1 503.47 795.44 453.28 802.55 411.42 733.57 382.96 619.3 384.26 508.55 410.36 414.64 471.15 355.12 551.96 319.36 613.25 297.84 640.35 275.68 611.41 241.5 527.18 207.33 431.13 164.38 360.72 126.68 324.89 103.22 340.65 109.41 392.11 158.53 467.1 224.49 547.75 302.51 617.38 346.45 686.87 314.29 740.67 209.1 774.84 75.32 809.02 -14.19 820.33 -3.82 810.06 86.93 799.65 214.75 772.33 326.82 742.13 394.9 735.46 419.9 755.94 416.32 816.82 410.64 912.28 396.35 1022.18 402.2 1106.41 436.37Q1106.41 436.37 1106.41 436.37" opacity="0.60"></path><path d="M1023.77 554.27C1050.48 577.05 1043.88 588.84 1010.61 586.69 958.53 580.14 895.54 554.03 833.39 509.7 770.82 466.15 716.58 418.83 673.74 385.07 633.23 384.33 601.23 419.01 578.45 487.74 555.67 576.69 544.27 654.3 545.29 701.69 548.65 719.45 567.33 701.09 600.05 659.63 632.34 601.85 671.16 540.75 706.54 488.38 723.11 435.13 720.48 394.96 693.77 372.18 642.06 349.4 582.15 346.16 527.31 359.93 460.77 385.59 442.48 434.99 473.49 397.63 500.69 333.53 528.17 246.69 550.95 157.74 573.73 89.01 589.66 63.57 601.94 81 618.21 131.46 638.17 202.95 667.33 276.36 708.24 350.55 763.88 412.21 831.38 458.24 902.91 499.87 972.06 531.49 1023.77 554.27Q1023.77 554.27 1023.77 554.27" opacity="0.89"></path></g></svg>